<svg width="2225" height="1053" viewBox="0 0 2225 1053" fill="none" xmlns="http://www.w3.org/2000/svg">
<path d="M130.5 607.5L105 570.5V567.5V565L107.5 562.5L109.5 561.5H111L113 562.5L154 552L147 496L121.5 474.5L151 460.5L170 418.5L178.5 463.5L200 484.5L187.5 491.5L175 499.5L224.5 548L279 530.5L286 527.5L255.5 196.5V188L258.5 179L263 171L269.5 165.5L280 161.5L886.5 106H891L897.5 107.5L903.5 110L909.5 114.5L914 119.5L917 125L918.5 131.5L942 384L952 338.5L969.5 327L982.5 317L987 294L996.5 316L1008.5 323L998 332.5L994 360L1049.5 401V395.5L1051.5 390.5L1055 386L1060.5 383.5L1131 361.5L1142 358.5H1150L1155.5 361.5L1160 366L1162 370.5L1179.5 426V438L1222.5 470V468V466.5L1223.5 464.5L1225 463L1227 462L1229 461.5L1317.5 456.5H1319.5H1321.5L1323 457L1326 458.5L1327.5 462.5V465.5L1332 549L1368 545.5L1374 488.5L1377.5 457L1384 404.5V401.5L1385.5 397.5L1388 395L1391 393H1393.5L1449 399.5L1452 334.5L1451.5 333V330V326.5L1452 324.5L1491 304.5L1493 303.5L1494.5 303L1495.5 303.5L1496.5 305.5L1497.5 308L1498.5 310L1499 311L1498.5 312L1529 316L1543 278.5L1543.5 277.5L1544 277L1545 276.5L1546.5 277L1551.5 279L1552 279.5L1552.5 280.5L1552 281.5L1541.5 309.5L1563.5 320L1571.5 316L1581 314.5L1590.5 316L1599.5 319L1605 323.5L1616 293L1618 292H1621L1640.5 298.5L1643.5 300V302.5L1634 327L1648 329.5L1651 327L1654.5 324.5L1656.5 323.5L1660 321.5L1663.5 320L1667 319L1671.5 318L1675 317.5H1678.5H1681L1684 318L1687.5 319L1691 320.5L1695.5 323.5L1698.5 326.5L1701.5 330.5L1702.5 332.5L1703.5 334.5L1705.5 339H1714L1714.5 337.5L1715.5 336.5L1716.5 336H1737.5L1738.5 336.5H1739L1740.5 337.5L1741.5 339V340.5L1743.5 371L1744.5 372L1745.5 371L1749 367.5L1761.5 353.5L1762 353L1764 351L1766 349L1766.5 348.5L1767 348L1768 347.5H1769L1770 348L1771 348.5L1772 349L1772.5 349.5L1773.5 350.5L1782 357L1786 360L1787 361L1787.5 362V363H1802.5L1800.5 361.5L1798.5 360L1798 359V358L1799 356.5L1802 352L1803 351L1804.5 351.5L1843 376L1844 377.5V381.5L1843 386L1907 426.5L1932 405.5L1941 360L1961 404L1986 418L2021 404L2030.5 393.5L2032 372.5L2043 390.5L2055 395.5L2046.5 405.5L2046 430.5L2047.5 475.5L2037 494.5L2044 543.5L2084.5 564.5L2086 561.5L2089 560L2121 551.5L2124 551L2126.5 551.5L2128.5 553L2130 555.5L2139.5 589.5V593L2138 595L2134 597.5L2129 616.5L2138 650L2139 654.5L2138 661L2134 668L2126.5 671.5L2089.5 681.5V744V791L2108.5 814.5L2079.5 825L2051.5 872H2039L2034 876L2022.5 879L2006 882.5L1991.5 886.5L1981 929L1978.5 933L1973 934.5L1969.5 933L1963 921.5L1951 896L1822 888L1819.5 892L1816 897L1811.5 900.5H1805.5L1777.5 896L1714 885.5L1653.5 878L1604.5 872.5L1553 868L1516 865.5L1455.5 863L1386.5 861.5L1380 852.5H1306.5L1305 856.5L1302 861.5L1296.5 864.5L1289.5 866L1203.5 852.5L1199.5 850.5L1196 847L1193.5 844L1191.5 839V836V833L1199.5 779L1177 773.5L1174.5 775.5H1171L1111.5 764L1107 762.5L1104 760L1101 754.5L1101.5 750L1111 709L1075.5 700.5L1069.5 704.5L1033.5 702L1029 700.5L1025.5 697.5H986.5V714V739L986 740.5L984.5 743L982.5 745L980 746.5L977.5 747.5H975L916.5 745.5L914 745L911.5 743.5L909 741.5L854 756L858.5 764L860.5 770.5V783L858.5 794L854 803.5L846.5 811L840 816.5L835 819L836.5 821L838.5 829.5L843.5 852.5L843 853.5L842.5 854.5L841 856L840 857L838.5 857.5H836.5L835 857L832 855.5L803 862L801.5 864L799 865.5H794L791.5 864L756.5 933L750 943L752 967.5L740 946L731 939L735 930.5V910.5L714 907L705.5 912L683.5 922L681 923H679L677 922L676 920.5L669.5 889H657.5L655 899.5L652 908.5L655 920.5L647.5 918.5L646.5 919H643L631.5 918.5L624 917L551.5 909.5L549.5 913.5L546 919L542 924.5L538.5 929.5L535 933.5L531 937L526 941L520.5 944.5L515.5 947H513L510.5 945.5L500.5 936L497.5 933.5V932.5H454.5L452 936L450 939.5L448 943L446 946L443 951H441.5L439.5 950.5L407 937L406 936V934.5L365 920L364 921.5L362 922L285.03 929.401L285.5 931L261.5 934.5L245.5 902.5L239.5 912L237.5 915.5L241 917L246.5 921L248 922.5V924.5L245.5 927.5L239.5 934.5L234 940.5L232 942L245.5 939L215 946L219 934.5L215 937.5L209 942.5L201.5 948L194 952.5L188.5 955.5H185.5L183.5 954L173 944L172 942.5V940.5L173 939.5L176.5 937.5L180.5 934L185.5 930.5L191 925.5L197.5 919.5L194 917L183.5 909.5V908L184 906.5L187 904L180.5 899L176.5 900L174 899L162.5 881L149.5 863.5L141.5 867.5L133.5 886L133 866L126.5 858.5L135.5 854L142.5 839.5L164 830L165.5 821L168 810.5L171.5 800.5L182 779.5L192 766.5L201.5 756.5L207.5 755.5L218.5 754L224.5 749L240.5 728L238.5 687L193 669L190 670.5H185L138 661.5L136.5 660L136 657.5L136.5 655L137.5 652.5L140 651L97.5 643.5L93.5 640L92 635.5L93.5 632L130.5 607.5Z" fill="black"/>
<path d="M105 570.5L130.5 607.5L93.5 632L92 635.5L93.5 640L97.5 643.5L140 651L137.5 652.5L136.5 655L136 657.5L136.5 660L138 661.5L185 670.5H190L193 669L238.5 687L240.5 728L224.5 749L218.5 754L207.5 755.5L201.5 756.5L192 766.5L182 779.5L171.5 800.5L168 810.5L165.5 821L164 830L142.5 839.5L135.5 854L126.5 858.5L133 866L133.5 886L141.5 867.5L149.5 863.5L162.5 881L174 899L176.5 900L180.5 899L187 904L184 906.5L183.5 908V909.5L194 917L197.5 919.5L191 925.5L185.5 930.5L180.5 934L176.5 937.5L173 939.5L172 940.5V942.5L173 944L183.5 954L185.5 955.5H188.5L194 952.5L201.5 948L209 942.5L215 937.5L219 934.5L215 946L245.5 939L232 942L234 940.5L239.5 934.5L245.5 927.5L248 924.5V922.5L246.5 921L241 917L237.5 915.5L239.5 912L245.5 902.5L261.5 934.5L285.5 931L278 905.5L280 926.5L280.5 928L281.5 929L282.5 929.5H284L362 922L364 921.5L365 920L406 934.5V936L407 937L439.5 950.5L441.5 951H443L446 946L448 943L450 939.5L452 936L454.5 932.5H497.5V933.5L500.5 936L510.5 945.5L513 947H515.5L520.5 944.5L526 941L531 937L535 933.5L538.5 929.5L542 924.5L546 919L549.5 913.5L551.5 909.5L624 917L631.5 918.5L643 919H646.5L647.5 918.5L655 920.5L652 908.5L655 899.5L657.5 889H669.5L676 920.5L677 922L679 923H681L683.5 922L705.5 912L714 907L735 910.5V930.5L731 939L740 946L752 967.5L750 943L756.5 933L791.5 864L794 865.5H799L801.5 864L803 862L832 855.5L835 857L836.5 857.5H838.5L840 857L841 856L842.5 854.5L843 853.5L843.5 852.5L838.5 829.5L836.5 821L835 819L840 816.5L846.5 811L854 803.5L858.5 794L860.5 783V770.5L858.5 764L854 756L909 741.5L911.5 743.5L914 745L916.5 745.5L975 747.5H977.5L980 746.5L982.5 745L984.5 743L986 740.5L986.5 739V714V697.5H1025.5L1029 700.5L1033.5 702L1069.5 704.5L1075.5 700.5L1111 709L1101.5 750L1101 754.5L1104 760L1107 762.5L1111.5 764L1171 775.5H1174.5L1177 773.5L1199.5 779L1191.5 833V836V839L1193.5 844L1196 847L1199.5 850.5L1203.5 852.5L1289.5 866L1296.5 864.5L1302 861.5L1305 856.5L1306.5 852.5H1380L1386.5 861.5L1455.5 863L1516 865.5L1553 868L1604.5 872.5L1653.5 878L1714 885.5L1777.5 896L1805.5 900.5H1811.5L1816 897L1819.5 892L1822 888L1951 896L1963 921.5L1969.5 933L1973 934.5L1978.5 933L1981 929L1991.5 886.5L2006 882.5L2022.5 879L2034 876L2039 872H2051.5L2079.5 825L2108.5 814.5L2089.5 791V744V681.5L2126.5 671.5L2134 668L2138 661L2139 654.5L2138 650L2129 616.5L2134 597.5L2138 595L2139.5 593V589.5L2130 555.5L2128.5 553L2126.5 551.5L2124 551L2121 551.5L2089 560L2086 561.5L2084.5 564.5L2044 543.5L2037 494.5L2047.5 475.5L2046 430.5L2046.5 405.5L2055 395.5L2043 390.5L2032 372.5L2030.5 393.5L2021 404L1986 418L1961 404L1941 360L1932 405.5L1907 426.5L1843 386L1844 381.5V377.5L1843 376L1804.5 351.5L1803 351L1802 352L1799 356.5L1798 358V359L1798.5 360L1800.5 361.5L1802.5 363H1787.5V362L1787 361L1786 360L1782 357L1773.5 350.5L1772.5 349.5L1772 349L1771 348.5L1770 348L1769 347.5H1768L1767 348L1766.5 348.5L1766 349L1764 351L1762 353L1761.5 353.5L1749 367.5L1745.5 371L1744.5 372L1743.5 371L1741.5 340.5V339L1740.5 337.5L1739 336.5H1738.5L1737.5 336H1716.5L1715.5 336.5L1714.5 337.5L1714 339H1705.5L1703.5 334.5L1702.5 332.5L1701.5 330.5L1698.5 326.5L1695.5 323.5L1691 320.5L1687.5 319L1684 318L1681 317.5H1678.5H1675L1671.5 318L1667 319L1663.5 320L1660 321.5L1656.5 323.5L1654.5 324.5L1651 327L1648 329.5L1634 327L1643.5 302.5V300L1640.5 298.5L1621 292H1618L1616 293L1605 323.5L1599.5 319L1590.5 316L1581 314.5L1571.5 316L1563.5 320L1541.5 309.5L1552 281.5L1552.5 280.5L1552 279.5L1551.5 279L1546.5 277L1545 276.5L1544 277L1543.5 277.5L1543 278.5L1529 316L1498.5 312L1499 311L1498.5 310L1497.5 308L1496.5 305.5L1495.5 303.5L1494.5 303L1493 303.5L1491 304.5L1452 324.5L1451.5 326.5V330V333L1452 334.5L1449 399.5L1393.5 393H1391L1388 395L1385.5 397.5L1384 401.5V404.5L1377.5 457L1374 488.5L1368 545.5L1332 549L1327.5 465.5V462.5L1326 458.5L1323 457L1321.5 456.5H1319.5H1317.5L1229 461.5L1227 462L1225 463L1223.5 464.5L1222.5 466.5V468V470L1179.5 438V426L1162 370.5L1160 366L1155.5 361.5L1150 358.5H1142L1131 361.5L1060.5 383.5L1055 386L1051.5 390.5L1049.5 395.5V401L994 360L998 332.5L1008.5 323L996.5 316L987 294L982.5 317L969.5 327L952 338.5L942 384L918.5 131.5L917 125L914 119.5L909.5 114.5L903.5 110L897.5 107.5L891 106H886.5L280 161.5L269.5 165.5L263 171L258.5 179L255.5 188V196.5L286 527.5L279 530.5L224.5 548L175 499.5L187.5 491.5L200 484.5L178.5 463.5L170 418.5L151 460.5L121.5 474.5L147 496L154 552L113 562.5L111 561.5H109.5L107.5 562.5L105 565V567.5V570.5Z" stroke="#924AFF" stroke-width="171" stroke-linejoin="round"/>
<path d="M113.5 576L88 539V536V533.5L90.5 531L92.5 530H94L96 531L137 520.5L133.5 492.5L131.75 478.5L130.875 471.5L130.438 468L130.219 466.25L130 466L129.5 465V464L129.203 463.828L128.406 463.156L126.812 461.812L123.625 459.125L117.25 453.75L104.5 443L119.25 436.25L126.625 432.875L130.312 431.188L132.156 430.344L133.078 429.922L133.539 429.711L134 429.5L134.305 428.836L134.609 428.172L135.219 426.844L136.438 424.188L138.875 418.875L143.75 408.25L153.5 387L161.5 432L183 453L170.5 460L158 468L207.5 516.5L262 499L269 496L238.5 165V156.5L241.5 147.5L246 139.5L252.5 134L263 130L869.5 74.5H874L880.5 76L886.5 78.5L892.5 83L897 88L900 93.5L901.5 100L925 352.5L935 307L952.5 295.5L965.5 285.5L970 262.5L979.5 284.5L991.5 291.5L981 301L977 328.5L1032.5 369.5V364L1034.5 359L1038 354.5L1043.5 352L1114 330L1125 327H1133L1138.5 330L1143 334.5L1145 339L1162.5 394.5V406.5L1205.5 438.5V436.5V435L1206.5 433L1208 431.5L1210 430.5L1212 430L1300.5 425H1302.5H1304.5L1306 425.5L1309 427L1310.5 431V434L1315 517.5L1351 514L1357 457L1360.5 425.5L1367 373V370L1368.5 366L1371 363.5L1374 361.5H1376.5L1432 368L1433.5 335.5L1435 303L1434.5 301.5V298.5V295L1435 293L1474 273L1476 272L1477.5 271.5L1478.5 272L1479.5 274L1480.5 276.5L1481.5 278.5L1482 279.5L1481.5 280.5L1512 284.5L1526 247L1526.5 246L1527 245.5L1528 245L1529.5 245.5L1534.5 247.5L1535 248L1535.5 249L1535 250L1524.5 278L1546.5 288.5L1554.5 284.5L1564 283L1573.5 284.5L1582.5 287.5L1588 292L1599 261.5L1601 260.5H1604L1623.5 267L1626.5 268.5V271L1617 295.5L1631 298L1634 295.5L1637.5 293L1639.5 292L1643 290L1646.5 288.5L1650 287.5L1654.5 286.5L1658 286H1661.5H1664L1667 286.5L1670.5 287.5L1674 289L1678.5 292L1681.5 295L1684.5 299L1685.5 301L1686.5 303L1688.5 307.5H1697L1697.5 306L1698.5 305L1699.5 304.5H1720.5L1721.5 305H1722L1723.5 306L1724.5 307.5V309L1726.5 339.5L1727.5 340.5L1728.5 339.5L1732 336L1744.5 322L1745 321.5L1747 319.5L1749 317.5L1749.5 317L1750 316.5L1751 316H1752L1753 316.5L1754 317L1755 317.5L1755.5 318L1756.5 319L1765 325.5L1769 328.5L1770 329.5L1770.5 330.5V331.5H1785.5L1783.5 330L1781.5 328.5L1781 327.5V326.5L1782 325L1785 320.5L1786 319.5L1787.5 320L1826 344.5L1827 346V350L1826 354.5L1890 395L1915 374L1924 328.5L1944 372.5L1969 386.5L2004 372.5L2013.5 362L2015 341L2026 359L2038 364L2029.5 374L2029 399L2030.5 444L2020 463L2027 512L2067.5 533L2069 530L2072 528.5L2104 520L2107 519.5L2109.5 520L2111.5 521.5L2113 524L2122.5 558V561.5L2121 563.5L2117 566L2111 583L2121 618.5L2122 623L2121 629.5L2117 636.5L2109.5 640L2072.5 650V712.5V759.5L2091.5 783L2062.5 793.5L2034.5 840.5H2022L2017 844.5L2005.5 847.5L1989 851L1974.5 855L1964 897.5L1961.5 901.5L1956 903L1952.5 901.5L1946 890L1934 864.5L1805 856.5L1802.5 860.5L1799 865.5L1794.5 869H1788.5L1760.5 864.5L1697 854L1636.5 846.5L1587.5 841L1536 836.5L1499 834L1438.5 831.5L1369.5 830L1363 821H1289.5L1288 825L1285 830L1279.5 833L1272.5 834.5L1186.5 821L1182.5 819L1179 815.5L1176.5 812.5L1174.5 807.5V804.5V801.5L1182.5 747.5L1160 742L1157.5 744H1154L1094.5 732.5L1090 731L1087 728.5L1084 723L1084.5 718.5L1094 677.5L1058.5 669L1052.5 673L1016.5 670.5L1012 669L1008.5 666H969.5V682.5V707.5L969 709L967.5 711.5L965.5 713.5L963 715L960.5 716H958L899.5 714L897 713.5L894.5 712L892 710L837 724.5L841.5 732.5L843.5 739V751.5L841.5 762.5L837 772L829.5 779.5L823 785L818 787.5L819.5 789.5L821.5 798L826.5 821L826 822L825.5 823L824 824.5L823 825.5L821.5 826H819.5L818 825.5L815 824L786 830.5L784.5 832.5L782 834H777L774.5 832.5L739.5 901.5L733 911.5L735 936L723 914.5L714 907.5L718 899V879L697 875.5L688.5 880.5L666.5 890.5L664 891.5H662L660 890.5L659 889L652.5 857.5H640.5L638 868L635 877L638 889L630.5 887L629.5 887.5H626L614.5 887L607 885.5L534.5 878L532.5 882L529 887.5L525 893L521.5 898L518 902L514 905.5L509 909.5L503.5 913L498.5 915.5H496L493.5 914L483.5 904.5L480.5 902V901H437.5L435 904.5L433 908L431 911.5L429 914.5L426 919.5H424.5L422.5 919L390 905.5L389 904.5V903L348 888.5L347 890L345 890.5L268.03 897.901L268.5 899.5L244.5 903L228.5 871L222.5 880.5L220.5 884L224 885.5L229.5 889.5L231 891V893L228.5 896L222.5 903L217 909L215 910.5L228.5 907.5L198 914.5L202 903L198 906L192 911L184.5 916.5L177 921L171.5 924H168.5L166.5 922.5L156 912.5L155 911V909L156 908L159.5 906L163.5 902.5L168.5 899L174 894L180.5 888L177 885.5L166.5 878V876.5L167 875L170 872.5L163.5 867.5L159.5 868.5L157 867.5L145.5 849.5L132.5 832L124.5 836L116.5 854.5L116 834.5L109.5 827L118.5 822.5L125.5 808L147 798.5L148.5 789.5L151 779L154.5 769L165 748L175 735L184.5 725L190.5 724L201.5 722.5L207.5 717.5L223.5 696.5L221.5 655.5L176 637.5L173 639H168L121 630L119.5 628.5L119 626L119.5 623.5L120.5 621L123 619.5L80.5 612L76.5 608.5L75 604L76.5 600.5L113.5 576Z" fill="black"/>
<path d="M88 539L113.5 576L76.5 600.5L75 604L76.5 608.5L80.5 612L123 619.5L120.5 621L119.5 623.5L119 626L119.5 628.5L121 630L168 639H173L176 637.5L221.5 655.5L223.5 696.5L207.5 717.5L201.5 722.5L190.5 724L184.5 725L175 735L165 748L154.5 769L151 779L148.5 789.5L147 798.5L125.5 808L118.5 822.5L109.5 827L116 834.5L116.5 854.5L124.5 836L132.5 832L145.5 849.5L157 867.5L159.5 868.5L163.5 867.5L170 872.5L167 875L166.5 876.5V878L177 885.5L180.5 888L174 894L168.5 899L163.5 902.5L159.5 906L156 908L155 909V911L156 912.5L166.5 922.5L168.5 924H171.5L177 921L184.5 916.5L192 911L198 906L202 903L198 914.5L228.5 907.5L215 910.5L217 909L222.5 903L228.5 896L231 893V891L229.5 889.5L224 885.5L220.5 884L222.5 880.5L228.5 871L244.5 903L268.5 899.5L261 874L263 895L263.5 896.5L264.5 897.5L265.5 898H267L345 890.5L347 890L348 888.5L389 903V904.5L390 905.5L422.5 919L424.5 919.5H426L429 914.5L431 911.5L433 908L435 904.5L437.5 901H480.5V902L483.5 904.5L493.5 914L496 915.5H498.5L503.5 913L509 909.5L514 905.5L518 902L521.5 898L525 893L529 887.5L532.5 882L534.5 878L607 885.5L614.5 887L626 887.5H629.5L630.5 887L638 889L635 877L638 868L640.5 857.5H652.5L659 889L660 890.5L662 891.5H664L666.5 890.5L688.5 880.5L697 875.5L718 879V899L714 907.5L723 914.5L735 936L733 911.5L739.5 901.5L774.5 832.5L777 834H782L784.5 832.5L786 830.5L815 824L818 825.5L819.5 826H821.5L823 825.5L824 824.5L825.5 823L826 822L826.5 821L821.5 798L819.5 789.5L818 787.5L823 785L829.5 779.5L837 772L841.5 762.5L843.5 751.5V739L841.5 732.5L837 724.5L892 710L894.5 712L897 713.5L899.5 714L958 716H960.5L963 715L965.5 713.5L967.5 711.5L969 709L969.5 707.5V682.5V666H1008.5L1012 669L1016.5 670.5L1052.5 673L1058.5 669L1094 677.5L1084.5 718.5L1084 723L1087 728.5L1090 731L1094.5 732.5L1154 744H1157.5L1160 742L1182.5 747.5L1174.5 801.5V804.5V807.5L1176.5 812.5L1179 815.5L1182.5 819L1186.5 821L1272.5 834.5L1279.5 833L1285 830L1288 825L1289.5 821H1363L1369.5 830L1438.5 831.5L1499 834L1536 836.5L1587.5 841L1636.5 846.5L1697 854L1760.5 864.5L1788.5 869H1794.5L1799 865.5L1802.5 860.5L1805 856.5L1934 864.5L1946 890L1952.5 901.5L1956 903L1961.5 901.5L1964 897.5L1974.5 855L1989 851L2005.5 847.5L2017 844.5L2022 840.5H2034.5L2062.5 793.5L2091.5 783L2072.5 759.5V712.5V650L2109.5 640L2117 636.5L2121 629.5L2122 623L2121 618.5L2111 583L2117 566L2121 563.5L2122.5 561.5V558L2113 524L2111.5 521.5L2109.5 520L2107 519.5L2104 520L2072 528.5L2069 530L2067.5 533L2027 512L2020 463L2030.5 444L2029 399L2029.5 374L2038 364L2026 359L2015 341L2013.5 362L2004 372.5L1969 386.5L1944 372.5L1924 328.5L1915 374L1890 395L1826 354.5L1827 350V346L1826 344.5L1787.5 320L1786 319.5L1785 320.5L1782 325L1781 326.5V327.5L1781.5 328.5L1783.5 330L1785.5 331.5H1770.5V330.5L1770 329.5L1769 328.5L1765 325.5L1756.5 319L1755.5 318L1755 317.5L1754 317L1753 316.5L1752 316H1751L1750 316.5L1749.5 317L1749 317.5L1747 319.5L1745 321.5L1744.5 322L1732 336L1728.5 339.5L1727.5 340.5L1726.5 339.5L1724.5 309V307.5L1723.5 306L1722 305H1721.5L1720.5 304.5H1699.5L1698.5 305L1697.5 306L1697 307.5H1688.5L1686.5 303L1685.5 301L1684.5 299L1681.5 295L1678.5 292L1674 289L1670.5 287.5L1667 286.5L1664 286H1661.5H1658L1654.5 286.5L1650 287.5L1646.5 288.5L1643 290L1639.5 292L1637.5 293L1634 295.5L1631 298L1617 295.5L1626.5 271V268.5L1623.5 267L1604 260.5H1601L1599 261.5L1588 292L1582.5 287.5L1573.5 284.5L1564 283L1554.5 284.5L1546.5 288.5L1524.5 278L1535 250L1535.5 249L1535 248L1534.5 247.5L1529.5 245.5L1528 245L1527 245.5L1526.5 246L1526 247L1512 284.5L1481.5 280.5L1482 279.5L1481.5 278.5L1480.5 276.5L1479.5 274L1478.5 272L1477.5 271.5L1476 272L1474 273L1435 293L1434.5 295V298.5V301.5L1435 303L1433.5 335.5L1432 368L1376.5 361.5H1374L1371 363.5L1368.5 366L1367 370V373L1360.5 425.5L1357 457L1351 514L1315 517.5L1310.5 434V431L1309 427L1306 425.5L1304.5 425H1302.5H1300.5L1212 430L1210 430.5L1208 431.5L1206.5 433L1205.5 435V436.5V438.5L1162.5 406.5V394.5L1145 339L1143 334.5L1138.5 330L1133 327H1125L1114 330L1043.5 352L1038 354.5L1034.5 359L1032.5 364V369.5L977 328.5L981 301L991.5 291.5L979.5 284.5L970 262.5L965.5 285.5L952.5 295.5L935 307L925 352.5L901.5 100L900 93.5L897 88L892.5 83L886.5 78.5L880.5 76L874 74.5H869.5L263 130L252.5 134L246 139.5L241.5 147.5L238.5 156.5V165L269 496L262 499L207.5 516.5L158 468L170.5 460L183 453L161.5 432L153.5 387L143.75 408.25L138.875 418.875L136.438 424.188L135.219 426.844L134.609 428.172L134.305 428.836L134 429.5L133.539 429.711L133.078 429.922L132.156 430.344L130.312 431.188L126.625 432.875L119.25 436.25L104.5 443L117.25 453.75L123.625 459.125L126.812 461.812L128.406 463.156L129.203 463.828L129.5 464V465L130 466L130.219 466.25L130.438 468L130.875 471.5L131.75 478.5L133.5 492.5L137 520.5L96 531L94 530H92.5L90.5 531L88 533.5V536V539Z" stroke="black" stroke-width="149" stroke-linejoin="round"/>
<rect x="236" y="132.712" width="666" height="413" rx="30" transform="rotate(-5.23028 236 132.712)" fill="#191627"/>
<path d="M590.341 251.907C589.737 245.307 594.597 239.467 601.197 238.863L765.51 223.822C772.11 223.217 777.95 228.078 778.554 234.678V234.678C779.158 241.278 774.298 247.118 767.698 247.722L603.385 262.763C596.785 263.367 590.945 258.507 590.341 251.907V251.907Z" fill="white"/>
<path d="M594.078 292.736C593.474 286.136 598.335 280.296 604.934 279.692L870.823 255.353C877.423 254.749 883.263 259.609 883.867 266.209V266.209C884.471 272.809 879.61 278.649 873.011 279.253L607.122 303.592C600.522 304.196 594.682 299.336 594.078 292.736V292.736Z" fill="white"/>
<path d="M597.816 333.565C597.212 326.966 602.072 321.126 608.672 320.521L713.235 310.95C719.835 310.346 725.675 315.206 726.279 321.806V321.806C726.883 328.406 722.023 334.246 715.423 334.85L610.86 344.421C604.26 345.026 598.42 340.165 597.816 333.565V333.565Z" fill="white"/>
<path d="M735.241 320.985C734.637 314.386 739.498 308.546 746.097 307.941L777.964 305.024C784.564 304.42 790.404 309.281 791.008 315.881V315.881C791.612 322.48 786.752 328.32 780.152 328.924L748.285 331.842C741.685 332.446 735.846 327.585 735.241 320.985V320.985Z" fill="white"/>
<path d="M799.971 315.06C799.367 308.46 804.227 302.62 810.827 302.016L836.719 299.646C843.319 299.042 849.159 303.902 849.763 310.502V310.502C850.367 317.102 845.506 322.942 838.907 323.546L813.015 325.916C806.415 326.52 800.575 321.66 799.971 315.06V315.06Z" fill="white"/>
<path d="M601.553 374.395C600.949 367.795 605.81 361.955 612.41 361.351L803.61 343.848C810.21 343.244 816.05 348.104 816.654 354.704V354.704C817.258 361.304 812.398 367.144 805.798 367.748L614.597 385.251C607.998 385.855 602.158 380.994 601.553 374.395V374.395Z" fill="white"/>
<path d="M605.291 415.224C604.687 408.624 609.547 402.784 616.147 402.18L729.673 391.788C736.272 391.184 742.112 396.044 742.717 402.644V402.644C743.321 409.244 738.46 415.084 731.86 415.688L618.335 426.08C611.735 426.684 605.895 421.824 605.291 415.224V415.224Z" fill="white"/>
<path d="M750.683 401.915C750.079 395.315 754.94 389.475 761.539 388.871L836.227 382.034C842.827 381.43 848.667 386.29 849.271 392.89V392.89C849.875 399.49 845.015 405.33 838.415 405.934L763.727 412.771C757.127 413.375 751.287 408.515 750.683 401.915V401.915Z" fill="white"/>
<path d="M609.028 456.053C608.424 449.453 613.285 443.613 619.885 443.009L703.535 435.352C710.135 434.748 715.975 439.608 716.579 446.208V446.208C717.183 452.808 712.323 458.648 705.723 459.252L622.072 466.909C615.473 467.514 609.633 462.653 609.028 456.053V456.053Z" fill="white"/>
<path d="M725.541 445.388C724.937 438.788 729.797 432.948 736.397 432.344L800.131 426.51C806.731 425.905 812.571 430.766 813.175 437.366V437.366C813.779 443.965 808.918 449.805 802.319 450.41L738.585 456.244C731.985 456.848 726.145 451.987 725.541 445.388V445.388Z" fill="white"/>
<path d="M822.137 436.545C821.533 429.945 826.394 424.105 832.993 423.501L870.835 420.037C877.435 419.433 883.275 424.294 883.879 430.893V430.893C884.483 437.493 879.623 443.333 873.023 443.937L835.181 447.401C828.581 448.005 822.742 443.145 822.137 436.545V436.545Z" fill="white"/>
<circle cx="785.726" cy="121.051" r="12.5" transform="rotate(-5.23028 785.726 121.051)" fill="#FF6767"/>
<circle cx="821.576" cy="117.769" r="12.5" transform="rotate(-5.23028 821.576 117.769)" fill="#FFEB85"/>
<circle cx="857.426" cy="114.487" r="12.5" transform="rotate(-5.23028 857.426 114.487)" fill="#75FF9C"/>
<path d="M619.033 173.806C619.737 174.392 620.46 174.977 621.2 175.56C621.973 176.104 622.863 176.745 623.87 177.484C624.914 178.22 626.117 179.122 627.48 180.191C628.843 181.259 630.483 182.591 632.401 184.187C630.782 186.251 629.403 187.968 628.263 189.337C627.12 190.671 626.104 191.812 625.215 192.761C624.361 193.707 623.607 194.553 622.953 195.3C622.295 196.011 621.656 196.738 621.038 197.482L613.079 198.21C613.971 197.297 614.882 196.382 615.81 195.466C616.738 194.55 617.716 193.574 618.742 192.541C619.8 191.468 620.906 190.318 622.059 189.092C623.245 187.827 624.508 186.427 625.85 184.895C623.711 183.247 621.906 181.894 620.436 180.835C619.001 179.774 617.726 178.878 616.611 178.149C615.528 177.38 614.547 176.729 613.666 176.195C612.822 175.658 611.922 175.108 610.967 174.544L619.033 173.806Z" fill="#FF3A83"/>
<path d="M271.6 217.962L272.996 218.075C273.539 218.085 273.737 218.278 273.781 218.756C273.853 220.527 272.724 223.01 269.886 223.27C268.9 223.36 267.708 223.168 266.301 222.604C264.548 221.891 264.089 221.812 263.731 221.845C263.014 221.911 262.308 222.427 262.295 223.603C262.293 223.905 262.29 224.206 261.842 224.247C261.752 224.255 261.663 224.264 261.54 224.245L260.291 224.088C259.563 224.034 259.487 223.529 259.473 223.38C259.314 221.647 260.47 219.462 263.099 219.222C264.025 219.137 265.155 219.305 266.467 219.817C268.494 220.566 268.711 220.636 269.13 220.598C269.936 220.524 270.813 219.901 270.883 218.69C270.891 218.448 270.88 217.997 271.388 217.951C271.447 217.945 271.54 217.967 271.6 217.962ZM532.336 203.915L529.711 206.505C529.407 206.804 529.116 206.921 528.847 206.945C528.728 206.956 523.108 206.446 522.553 200.382C522.222 196.767 520.431 195.635 518.28 195.832L518.131 195.846L519.124 206.691C519.156 207.049 518.912 207.343 518.584 207.373L512.609 207.92C512.25 207.952 511.957 207.708 511.924 207.35L509.687 182.912C509.657 182.583 509.898 182.26 510.257 182.227L516.232 181.68C516.56 181.65 516.856 181.924 516.887 182.253L517.598 190.02C517.953 189.958 518.312 189.925 518.64 189.895C524.257 189.381 529.045 192.316 529.676 198.223C529.883 200.163 530.408 201.621 531.979 202.652C532.172 202.785 532.528 203.054 532.558 203.382C532.572 203.532 532.528 203.716 532.336 203.915ZM552.226 195.647C552.759 201.473 547.142 205.271 542.9 205.659C538.03 206.105 533.435 202.971 532.954 197.712C532.39 191.558 536.699 187.94 541.957 187.459C548.559 186.855 551.87 191.763 552.226 195.647ZM543.094 199.887C545.215 199.693 546.013 197.873 545.857 196.17C545.805 195.602 545.42 192.715 542.373 192.994C539.863 193.224 539.341 195.411 539.464 196.755C539.652 198.816 541.391 200.043 543.094 199.887ZM571.849 202.316L566.32 203.123L566.26 203.129C565.961 203.156 565.698 202.909 565.638 202.583L564.762 196.307C564.336 193.303 563.594 192.106 561.698 192.129L563.229 202.924C563.261 203.283 563.047 203.574 562.721 203.634L557.159 204.414L557.099 204.419C556.801 204.447 556.537 204.2 556.477 203.874L554.308 188.407L554.303 188.347C554.273 188.019 554.49 187.758 554.786 187.701L556.57 187.447C558.047 186.8 559.519 186.424 560.953 186.293C562.297 186.169 563.571 186.264 564.777 186.605C566.624 185.713 568.416 185.218 570.089 185.065C575.347 184.583 579.505 187.547 580.331 192.954C580.628 194.885 581.091 196.319 582.596 197.295C582.789 197.428 583.175 197.694 583.205 198.023C583.219 198.172 583.175 198.357 583.01 198.523C583.015 198.583 580.697 201.235 580.697 201.235C580.396 201.564 580.138 201.708 579.839 201.735C579.421 201.773 574.646 201.277 573.749 195.424C573.304 192.211 572.567 191.074 570.843 190.991L572.357 201.607C572.389 201.965 572.175 202.256 571.849 202.316ZM595.284 200.924L594.925 200.957C588.144 201.578 584.314 197.259 583.899 192.718C583.507 188.445 586.115 183.688 592.926 183.064C600.335 182.386 601.268 188.959 601.358 189.944C601.484 191.319 601.021 192.506 599.313 193.265C597.952 193.871 595.772 194.402 594.223 194.604C593.745 194.648 593.577 194.453 593.425 194.105C592.976 193.152 592.231 191.262 592.22 191.143C592.189 190.814 592.415 190.643 592.795 190.517C594.316 190.017 594.519 189.938 594.481 189.52C594.456 189.251 593.801 188.347 592.547 188.462C591.113 188.593 590.032 189.957 590.202 191.809C590.396 193.93 592.168 196.178 595.903 195.836C596.112 195.817 596.351 195.795 596.557 195.746L596.617 195.741C597.035 195.703 597.568 195.925 597.614 196.433C597.642 196.732 597.051 198.834 596.696 199.891C596.5 200.391 596.15 200.845 595.284 200.924Z" fill="#B049FF"/>
<path d="M301.967 227.142L295.663 228.05L295.603 228.055C295.215 228.091 294.886 227.79 294.853 227.431L292.396 210.455L287.521 211.172C287.102 211.21 286.717 210.944 286.681 210.556L285.906 205.054L285.901 204.994C285.868 204.635 286.139 204.309 286.525 204.244L292.084 203.434L303.857 201.723C304.246 201.688 304.661 201.951 304.7 202.369L305.469 207.812C305.505 208.2 305.239 208.586 304.823 208.654L300.125 209.325L302.585 226.332L302.588 226.362C302.624 226.75 302.322 227.079 301.967 227.142ZM312.404 224.891L313.021 221.43C313.1 220.971 313.385 220.794 313.654 220.77C313.833 220.753 313.988 220.799 314.14 220.816C317.644 221.579 320.33 220.641 320.174 218.938C320.089 218.012 318.986 217.148 316.984 217.332L316.895 217.34C316.536 217.373 315.955 217.275 315.843 216.713L315.05 212.327L315.036 212.178C314.987 211.64 315.264 211.374 315.772 211.327L315.921 211.314C317.983 211.125 318.544 209.688 318.448 208.642C318.303 207.059 316.828 206.41 315.095 206.569C313.691 206.698 312.271 207.31 311.696 207.935C311.476 208.166 311.305 208.272 311.185 208.283C310.916 208.307 310.742 208.052 310.509 207.802L307.364 204.716C307.201 204.58 307.125 204.407 307.111 204.257C307.092 204.048 307.222 203.825 307.478 203.651C310.312 201.705 313.294 200.709 316.012 200.46C321.718 199.938 326.394 202.643 326.761 206.646C326.925 208.439 326.236 210.46 324.412 212.585C327.159 213.629 328.502 215.464 328.685 217.466C329.035 221.29 325.13 225.684 318.467 226.294C316.794 226.447 314.95 226.375 312.986 225.982C312.527 225.904 312.364 225.768 312.339 225.499C312.326 225.35 312.369 225.165 312.404 224.891ZM354.713 220.656L350.912 222.902C350.683 223.044 350.45 223.125 350.211 223.147C349.912 223.174 349.632 223.079 349.393 222.77C347.972 221.062 345.819 218.277 344.169 216.048C342.914 216.163 341.675 216.126 340.51 215.901L340.797 222.985C340.797 223.316 340.583 223.607 340.254 223.637L340.194 223.642L333.89 223.888C333.592 223.915 333.298 223.671 333.268 223.342L333.263 223.283L332.295 199.542C332.297 199.24 332.541 198.947 332.84 198.92L332.9 198.914L338.451 198.677C339.584 198.212 340.762 197.923 341.927 197.817C347.424 197.313 352.766 200.711 353.267 206.178C353.401 207.642 353.286 210.333 351.584 212.477C353.574 215.458 355.271 219.521 355.296 219.789C355.323 220.088 355.201 220.401 354.713 220.656ZM340.066 204.464L340.297 210.287C340.949 210.499 341.805 210.631 342.612 210.557C345.031 210.336 345.737 208.494 345.611 207.12C345.433 205.178 343.634 203.957 341.423 204.159C341.005 204.197 340.533 204.301 340.066 204.464ZM385.37 219.778L385.34 219.781L379.234 219.888C378.574 219.918 378.215 219.288 378.185 218.96L378.182 218.93L378.405 205.895L378.391 205.746C378.372 205.537 378.331 205.42 378.242 205.428C378.182 205.433 378.101 205.531 377.995 205.692C377.525 206.488 375.771 211.348 374.559 214.23C374.461 214.48 374.171 214.929 373.516 215.019L370.45 215.42C369.912 215.469 369.573 215.048 369.361 214.706C367.615 212.094 365.024 207.813 364.385 207.088C364.252 206.95 364.154 206.868 364.065 206.876C364.005 206.882 363.986 207.004 364.002 207.183L364.022 207.392L366.528 219.966L366.531 219.996C366.561 220.325 366.2 220.99 365.548 221.11L359.856 222.113L359.826 222.116C359.348 222.16 358.979 221.742 358.94 221.324L355.659 198.307C355.629 197.978 355.767 197.514 356.329 197.402L362.184 196.535L362.244 196.529C362.662 196.491 363.282 196.675 363.415 196.814C365.037 198.412 368.25 202.577 371.086 206.565C371.154 206.649 371.186 206.676 371.246 206.671C371.306 206.665 371.33 206.603 371.382 206.508C373.446 202.071 375.852 197.423 377.157 195.556C377.263 195.395 377.719 195.113 378.137 195.074L378.197 195.069L384.17 194.823C384.74 194.801 384.958 195.203 384.988 195.532L384.993 195.592L386.097 218.838C386.105 219.259 385.818 219.737 385.37 219.778ZM405.42 217.461L399.326 218.35L399.266 218.355C398.908 218.388 398.549 218.09 398.516 217.731L396.077 200.964L393.818 201.291L393.788 201.294C393.459 201.324 393.13 201.022 393.092 200.604L392.274 194.955L392.268 194.895C392.235 194.537 392.507 194.211 392.863 194.148L401.871 192.842L401.931 192.836C402.289 192.803 402.618 193.105 402.681 193.46L406.039 216.651L406.044 216.711C406.077 217.069 405.808 217.425 405.42 217.461ZM435.966 215.056L430.29 215.244C429.961 215.274 429.665 215 429.461 214.748C428.743 213.819 421.751 203.253 420.319 201.757C420.183 201.589 420.058 201.54 419.968 201.548C419.819 201.562 419.77 201.687 419.792 201.926L419.803 202.045L422.492 214.633L422.494 214.662C422.524 214.991 422.28 215.616 421.542 215.774L416.021 217.002L415.931 217.011C415.483 217.052 415.081 216.606 415.015 216.221L411.633 193.424L411.628 193.364C411.597 193.036 411.741 192.3 412.336 192.215L418.137 191.413L418.196 191.407C418.645 191.366 419.264 191.551 419.427 191.686C421.384 193.315 425.616 199.073 428.859 203.566C428.965 203.737 429.06 203.789 429.15 203.78C429.27 203.769 429.313 203.585 429.291 203.346L428.531 191.094C428.498 190.735 428.797 190.377 429.155 190.344L429.215 190.339L434.984 190.172C435.465 190.158 435.704 190.468 435.737 190.826C435.808 191.603 436.56 208.705 436.65 214.3C436.686 214.689 436.385 215.018 435.966 215.056ZM457.793 213.239L457.734 213.244L452.12 213.457C451.729 213.462 451.343 213.197 451.307 212.808L451.304 212.778L451.189 210.198L442.514 210.54C441.403 210.582 440.832 209.941 440.745 208.985C440.728 208.806 440.742 208.624 440.752 208.412L442.118 189.429C442.145 189.065 442.419 188.768 442.777 188.736L442.867 188.727L448.742 189.063C449.073 189.063 449.399 189.334 449.429 189.663C449.435 189.723 449.408 189.755 449.413 189.815L448.283 202.812C448.267 202.964 448.278 203.084 448.286 203.173C448.355 203.92 448.898 203.931 449.349 203.92L450.97 203.862L450.708 197.379C450.702 196.987 451.063 196.653 451.452 196.618L451.512 196.612L457.096 196.402C457.487 196.396 457.813 196.668 457.846 197.026L457.851 197.086L458.083 203.572L460.066 203.511C460.425 203.478 460.783 203.777 460.816 204.135L460.822 204.195L461.058 209.084C461.061 209.445 460.792 209.801 460.404 209.837L460.344 209.842L458.335 209.936L458.418 212.489C458.421 212.85 458.152 213.206 457.793 213.239ZM479.434 211.288L479.374 211.293L471.81 211.594L471.69 211.605L465.449 211.875C465.058 211.881 464.729 211.58 464.691 211.161L463.783 187.747C463.78 187.385 464.051 187.059 464.439 187.024L464.499 187.018L470.711 186.751C471.102 186.745 471.431 187.046 471.469 187.465L472.112 204.035L479.106 203.756C479.527 203.748 479.858 204.079 479.894 204.467L480.088 210.535C480.091 210.896 479.822 211.252 479.434 211.288Z" fill="#53FF77"/>
<path d="M498.054 202.805L498.021 202.778C496.884 203.515 495.716 203.923 494.521 204.032C490.757 204.377 487.224 201.658 486.871 197.804C486.633 195.205 488.032 190.738 492.663 190.315C493.768 190.213 494.898 190.381 495.83 190.687C495.936 190.527 496.167 190.416 496.435 190.391L496.555 190.38L500.499 190.35C501.072 190.358 501.278 190.641 501.306 190.939L501.317 191.059C501.182 193.21 501.04 195.272 501.184 196.855C501.417 199.394 502.27 199.497 502.539 199.472C503.913 199.347 504.318 195.875 504.168 194.232C503.703 189.153 499.198 186.342 494.268 186.794C488.204 187.349 483.904 191.719 484.476 197.963C484.979 203.46 489.298 207.854 495.362 207.299C497.155 207.135 498.942 206.58 500.59 205.827C500.677 205.788 500.736 205.783 500.796 205.778C501.424 205.72 501.929 206.638 501.992 207.325C502.02 207.624 501.982 207.868 501.813 208.004C500.524 209.056 498.506 209.723 496.236 209.931C492.083 210.311 487.153 209.105 484.478 205.554C482.765 203.301 481.835 200.705 481.6 198.136C480.719 188.516 488.677 184.624 493.995 184.137C501.404 183.459 506.644 188.041 507.182 193.926C507.606 198.557 505.303 203.015 501.001 203.409C500.015 203.499 499.005 203.321 498.054 202.805ZM496.096 199.189L496.126 199.186C495.979 198.567 495.886 197.882 495.818 197.135C495.763 196.538 495.735 195.908 495.702 195.218C495.39 194.765 494.735 194.523 494.078 194.583C492.793 194.701 491.941 195.924 492.078 197.417C492.198 198.732 493.198 199.785 494.662 199.651C495.11 199.61 495.58 199.477 496.096 199.189Z" fill="#5599FF"/>
<path d="M660.921 193.349L660.935 193.498C660.995 194.156 660.585 194.283 660.197 194.319C660.197 194.319 655.327 195.096 654.64 195.159L654.58 195.165C654.132 195.206 653.801 194.874 653.733 194.459C653.342 191.512 652.756 187.74 652.341 184.193L650.179 184.27C649.848 184.271 649.551 183.996 649.521 183.668L649.426 178.676C649.426 178.344 649.67 178.051 650.028 178.018L651.769 177.949L651.758 176.836C651.82 171.257 655.762 168.908 659.556 168.56C660.691 168.456 661.813 168.534 662.796 168.746C663.193 168.8 663.324 169.24 663.351 169.538L663.362 169.658L663.136 173.113C663.12 173.596 662.669 173.939 662.281 173.974L662.191 173.983C660.668 174.122 658.593 174.824 658.853 177.662L661.406 177.579C661.734 177.549 662.031 177.823 662.063 178.182L662.159 183.174C662.156 183.475 661.942 183.766 661.613 183.796L661.554 183.802L659.454 183.903C659.866 187.089 660.431 190.622 660.921 193.349ZM676.186 193.518L675.827 193.551C669.046 194.172 665.216 189.853 664.8 185.312C664.409 181.04 667.017 176.282 673.828 175.659C681.237 174.98 682.17 181.553 682.26 182.539C682.386 183.913 681.922 185.1 680.215 185.859C678.854 186.466 676.674 186.997 675.125 187.198C674.647 187.242 674.479 187.047 674.327 186.699C673.878 185.746 673.132 183.856 673.122 183.737C673.091 183.408 673.317 183.237 673.697 183.112C675.218 182.611 675.421 182.532 675.383 182.114C675.358 181.845 674.703 180.941 673.449 181.056C672.015 181.187 670.934 182.551 671.104 184.403C671.298 186.525 673.07 188.772 676.805 188.431C677.014 188.411 677.253 188.39 677.459 188.341L677.519 188.335C677.937 188.297 678.47 188.519 678.516 189.027C678.544 189.326 677.953 191.428 677.598 192.485C677.402 192.985 677.052 193.439 676.186 193.518ZM696.6 186.739L695.391 190.645C695.204 191.235 694.962 191.558 694.514 191.599C694.425 191.608 694.335 191.616 694.243 191.594C689.345 191.078 687.431 188.603 686.59 181.058L684.339 181.143C684.007 181.144 683.711 180.869 683.681 180.541L683.586 175.549C683.585 175.217 683.83 174.924 684.188 174.891L686.111 174.836C686.067 173.695 686.014 172.465 685.987 171.172C685.984 170.81 685.991 170.237 686.768 170.166L686.888 170.155L692.559 169.907C693.069 169.891 693.336 170.168 693.382 170.675C693.437 171.936 693.468 173.258 693.493 174.521L695.565 174.452C695.894 174.422 696.19 174.696 696.223 175.055L696.319 180.047C696.316 180.348 696.102 180.639 695.773 180.669L695.713 180.675L693.733 180.765C693.982 183.484 694.529 185.513 695.896 185.96C696.238 186.079 696.608 186.166 696.638 186.495C696.643 186.554 696.621 186.647 696.6 186.739ZM714.501 173.924L713.428 177.667C713.341 178.037 713.04 178.365 712.681 178.398C712.562 178.409 712.407 178.363 712.279 178.284C711.701 177.886 710.625 177.653 709.579 177.748C708.802 177.819 706.22 178.237 706.518 181.493C706.701 183.495 708.255 184.678 710.197 184.5C711.482 184.383 712.924 183.678 714.237 182.232C714.4 182.037 714.655 181.863 714.924 181.838C715.133 181.819 715.383 181.917 715.625 182.256C716.256 183.223 716.664 183.727 717.232 184.67C717.338 184.841 717.417 185.044 717.436 185.253C717.469 185.612 717.35 185.954 717.024 186.346C714.815 188.867 712.04 190.146 709.351 190.392C704.392 190.846 699.683 187.782 699.201 182.524C698.589 175.832 703.688 172.624 708.617 172.173C711.933 171.869 714.443 172.965 714.512 173.712C714.517 173.772 714.525 173.861 714.501 173.924ZM740.761 184.835L738.136 187.425C737.832 187.724 737.542 187.841 737.273 187.866C737.153 187.877 731.533 187.367 730.978 181.302C730.647 177.688 728.857 176.556 726.706 176.753L726.556 176.767L727.549 187.611C727.582 187.97 727.338 188.263 727.009 188.293L721.034 188.84C720.675 188.873 720.382 188.629 720.349 188.27L718.112 163.833C718.082 163.504 718.324 163.181 718.682 163.148L724.657 162.601C724.986 162.571 725.282 162.845 725.312 163.174L726.023 170.941C726.379 170.878 726.737 170.846 727.066 170.815C732.682 170.301 737.47 173.237 738.101 179.144C738.309 181.083 738.834 182.542 740.404 183.573C740.597 183.706 740.953 183.974 740.983 184.303C740.997 184.452 740.954 184.637 740.761 184.835Z" fill="#FF66FC"/>
<path d="M359.284 453.81C362.295 449.787 366.084 443.065 366.726 438.066C371.357 432.119 371.982 422.414 375.455 416.553C378.684 411.105 381.577 401.082 383.77 395.107C385.223 391.146 385.543 386.701 387.048 382.855C387.866 380.766 389.81 378.381 389.61 376.185C389.138 371.033 384.318 368.409 379.974 366.495L379.744 366.394C374.525 364.095 368.988 361.655 365.675 356.721C363.778 353.896 358.87 352.241 358.54 348.64C358.143 344.299 357.09 340.616 355.79 336.481C353.977 330.713 353.348 322.102 352.8 316.12C352.082 308.276 362.645 301.178 366.033 294.684C369.162 288.686 375.637 284.334 377.063 277.126C378.187 271.44 383.455 266.207 383.577 259.981C383.608 258.377 385.122 251.002 387.059 250.52C393.177 248.999 398.675 264.641 402.173 269.634C410.9 276.786 425.506 273.399 437.736 275.964C443.149 277.099 449.733 277.344 454.482 280.611C457.628 282.776 463.258 281.571 467.115 279.455C470.452 277.625 470.222 276.572 473.82 275.572C478.921 274.156 483.139 270.477 488.527 269.68C493.323 268.972 493.89 278.312 495.885 281.878C498.282 286.162 497.264 294.707 497.716 299.637L498.258 305.564C498.475 307.932 497.444 311.982 498.188 314.303C499.816 319.379 504.464 323.058 504.994 328.849C505.52 334.595 506.037 340.586 504.532 346.155C502.929 352.085 500.66 358.159 498.511 363.911L498.489 363.971C497.618 366.301 497.781 370.373 496.495 372.377C495.761 373.52 494.827 374.822 494.647 376.223C494.053 380.848 487.798 382.617 485.385 386.264C483.58 388.994 482.735 395.313 482.979 397.977C482.164 400.539 480.916 405.822 481.162 408.511C481.383 410.924 478.944 420.179 478.368 422.506M478.368 422.506C477.676 425.305 478.945 419.768 478.368 422.506ZM478.368 422.506C477.776 425.319 477.349 430.9 476.425 433.548L474.167 441.788C472.361 449.484 471.164 471.184 471.957 456.048C472.296 459.751 469.853 470.972 469.853 470.972C469.853 470.972 470.346 463.411 470.561 465.765C470.688 467.15 470.229 471.269 469.277 471.859M327.401 330.397C340.177 329.228 352.275 329.959 365.012 328.793M335.212 345.311L366.18 341.557M482.761 367.659C485.442 369.109 489.572 368.622 492.563 369.111C495.945 369.664 499.311 371.115 502.523 372.285C504.558 373.026 510.103 373.612 511.076 375.18M484.25 353.732C488.181 353.372 493.726 355.661 497.895 356.364C504.325 357.449 513.259 356.717 518.875 359.756M391.751 339.216C395.765 342.971 395.484 348.156 401.7 349.541C407.845 350.911 411.487 346.263 417.243 346.076C420.353 345.974 421.083 359.078 426.374 360.869C429.452 361.91 433.549 361.316 436.798 360.845L437.01 360.814C440.279 360.341 441.375 355.818 444.812 355.503M389.998 320.071C389.764 317.51 387.733 315.681 390.798 315.401C393.763 312.579 397.219 314.371 399.249 316.057C402.658 318.89 390.447 324.972 389.998 320.071ZM389.998 320.071C389.733 317.173 391.628 315.325 395.06 315.011M447.739 334.091C445.217 331.563 446.119 327.368 447.929 325.194C449.738 323.02 455.432 325.089 456.621 326.909C458.65 330.013 450.261 336.618 447.739 334.091Z" stroke="white" stroke-width="11" stroke-linecap="round"/>
<path d="M1827.03 347.721L1826.43 353.069C1826.32 354 1825.87 354.89 1825.35 355.303C1820.35 360.037 1783.09 374.089 1780.18 373.762C1779.37 373.67 1778.95 373.153 1778.62 371.938L1777.04 366.108C1776.96 365.746 1776.9 365.268 1776.94 364.919C1777.02 364.222 1777.42 363.796 1778.27 363.539C1779.25 363.179 1808.7 352.603 1814.31 349.821L1782.07 328.763C1781.52 328.465 1781.23 327.844 1781.31 327.147C1781.35 326.798 1781.39 326.449 1781.68 326.01C1782.44 324.448 1784.14 321.931 1785.02 320.382C1785.43 319.84 1785.82 319.53 1786.4 319.596C1786.75 319.635 1787.2 319.804 1787.64 320.089L1826.04 345.019C1827.14 345.732 1827.15 346.675 1827.03 347.721Z" fill="#37395E"/>
<path d="M1719.48 375.25L1708.44 371.06C1706.25 370.231 1704.44 369.046 1704.03 366.511L1696.98 309.533C1696.85 308.231 1696.96 307.273 1697.25 306.507C1697.71 305.304 1698.65 304.787 1700.06 304.696C1703.15 304.488 1719.72 304.015 1722.01 304.886C1723.66 305.508 1724.46 306.689 1724.59 307.99L1726.6 339.658C1726.61 340.288 1726.86 340.631 1727.07 340.714C1727.4 340.839 1727.7 340.703 1728.28 340.171C1735.47 332.761 1747.58 318.961 1749.06 317.392C1750.25 316.218 1751.59 315.977 1753.02 316.516C1753.78 316.806 1754.51 317.206 1755.26 317.866L1768.22 327.91C1770.44 329.63 1771.01 331.097 1770.43 332.629C1769.77 334.379 1742.88 368.981 1725.03 375.475C1723.6 375.936 1721.45 375.996 1719.48 375.25Z" fill="#37395E"/>
<path d="M1672.81 354.642L1671.46 355.014C1645.84 362.041 1628.18 348.081 1623.48 330.931C1619.05 314.796 1625.8 294.745 1651.53 287.687C1679.51 280.01 1687.59 304.605 1688.61 308.328C1690.04 313.518 1689.07 318.394 1683.03 322.477C1678.23 325.737 1670.22 329.269 1664.41 331.105C1662.61 331.6 1661.82 330.965 1661 329.735C1658.63 326.383 1654.47 319.637 1654.35 319.186C1654.01 317.944 1654.75 317.133 1656.13 316.392C1661.62 313.428 1662.35 312.986 1661.92 311.406C1661.64 310.391 1658.51 307.368 1653.77 308.668C1648.35 310.154 1645.14 316.131 1647.06 323.127C1649.25 331.138 1657.6 338.555 1671.7 334.685C1672.49 334.468 1673.39 334.221 1674.15 333.891L1674.38 333.829C1675.96 333.396 1678.16 333.885 1678.68 335.803C1678.99 336.932 1678.16 345.409 1677.52 349.71C1677.12 351.762 1676.08 353.745 1672.81 354.642Z" fill="#37395E"/>
<path d="M1606.74 349.778L1596.32 361.828C1594.76 363.667 1593.29 364.431 1591.62 363.904C1591.62 363.904 1582.34 359.876 1578.06 351.657C1570.72 353.148 1563.75 352.671 1557.61 350.737C1538.98 344.865 1527.52 325.553 1533.18 307.587C1537.47 293.973 1552.97 277.879 1575.07 284.841C1579.86 286.353 1584.35 288.869 1587.91 291.586L1599.34 262.312C1600.05 260.45 1602.18 259.897 1604.42 260.6L1623.62 267.018C1626.74 268.002 1627.18 269.734 1626.68 271.297L1626.58 271.631C1625.9 273.012 1607.66 318.42 1605.24 326.12C1602.36 335.271 1601.55 342.5 1605.49 345.95C1606.54 346.895 1607.6 347.839 1607.28 348.844C1607.17 349.178 1607.07 349.513 1606.74 349.778ZM1575.62 331.753C1576.42 326.485 1577.84 320.43 1580.09 313.288C1579.56 310.669 1576.93 308.123 1573.58 307.068C1566.89 304.958 1560.71 309.759 1558.74 316.009C1556.77 322.258 1559.44 328.985 1566.58 331.236C1569.04 332.009 1572.04 332.219 1575.62 331.753Z" fill="#37395E"/>
<path d="M1490.65 342.115L1526.21 246.588C1526.53 245.755 1527.33 245.253 1528.15 245.218C1529.08 245.179 1533.5 247.101 1534.09 247.311C1535.04 247.622 1535.3 248.314 1535.33 249.015C1535.39 250.301 1500.54 343.573 1499.8 345.478C1499.49 346.428 1498.69 346.93 1497.76 346.969C1497.17 346.994 1494.2 345.947 1492.18 345.213C1491.23 344.784 1490.49 343.995 1490.45 343.06C1490.44 342.71 1490.54 342.471 1490.65 342.115Z" fill="#37395E"/>
<path d="M1482.07 318.71L1479.9 324.345C1479.44 325.519 1478.97 325.991 1478.27 325.997C1476.52 326.012 1440.69 309.357 1435.25 302.968C1434.78 302.504 1434.3 301.573 1434.29 300.637L1434.36 295.254C1434.35 294.201 1434.46 293.264 1435.51 292.67L1476.28 271.841C1476.86 271.602 1477.33 271.481 1477.68 271.478C1478.27 271.473 1478.62 271.821 1478.86 272.404C1479.1 272.753 1481.96 278.461 1481.96 279.397C1481.97 280.216 1481.51 280.805 1481.04 281.043L1446.68 298.657C1452.09 302.004 1480.29 315.566 1481.23 316.026C1481.93 316.371 1482.29 316.836 1482.29 317.538C1482.3 317.889 1482.18 318.241 1482.07 318.71Z" fill="#37395E"/>
<g filter="url(#filter0_d_2051_168)">
<path d="M658.744 887.631L643.453 816.708C643.161 815.215 643.443 813.61 644.936 813.318L666.781 807.976L667.011 807.931C668.503 807.639 670.153 808.151 670.422 809.529L678.232 849.489C678.614 851.441 679.07 851.948 680.219 851.724C681.252 851.522 682.448 850.93 695.232 844.975C695.784 844.748 696.313 844.406 696.772 844.316C697.691 844.137 698.47 844.461 699.405 845.59C711.072 858.926 711.277 859.363 711.523 860.626C711.725 861.66 711.331 862.691 710.34 863.719C697.659 877.523 670.184 890.045 663.409 891.369C660.538 891.93 659.26 890.272 658.744 887.631ZM626.848 887.904L609.371 886.313C607.306 886.121 606.598 885.544 606.418 884.625C606.283 883.936 606.471 883.065 606.728 881.942C609.341 872.133 612.263 854.752 613.66 844.823C613.945 842.621 614.959 841.708 616.337 841.439C616.681 841.371 617.141 841.282 617.508 841.329L637.923 842.704C639.735 842.827 641.201 843.613 641.604 845.68C642.884 852.225 634.265 886.813 628.868 887.867C628.294 887.98 627.697 887.977 626.848 887.904Z" fill="#924AFF"/>
<path d="M566.726 873.006L566.493 872.983L538.319 868.958C524.13 904.962 499.784 916.001 496.64 915.696C495.243 915.561 493.935 914.493 492.324 912.927L481.455 902.586C480.918 902.064 480.73 901.575 480.786 900.993C480.888 899.945 482.166 898.893 483.409 898.191C495.845 891.169 503.759 878.653 508.992 864.702L480.352 860.631C479.071 860.507 478.241 859.369 478.365 858.088L478.388 857.855L481.243 839.324C481.484 838.054 482.051 837.051 483.332 837.176L515.443 841.818C516.808 835.015 517.801 828.411 518.622 822.378C518.953 820.177 520.159 818.648 522.488 818.874L542.379 821.039C546.921 821.479 547.461 823.177 546.264 835.521C545.936 838.899 545.47 842.497 544.77 846.073L569.578 849.655C570.976 849.791 572.365 851.219 572.241 852.5L569.269 871.019C569.145 872.3 568.007 873.13 566.726 873.006Z" fill="#924AFF"/>
<path d="M414.938 868.304L399.778 882.732C398.785 883.731 397.99 884.133 397.406 884.169C396.705 884.213 396.092 883.782 395.355 883.242C377.52 869.819 375.046 867.746 374.944 866.111C374.915 865.644 375.009 865.286 375.455 864.907L388.432 853.078C389.432 852.195 390.439 851.428 391.607 851.356C393.943 851.21 415.413 860.889 415.755 866.378C415.792 866.962 415.602 867.677 414.938 868.304ZM429.998 831.61L418.173 850.636C417.107 852.343 416.319 852.861 415.618 852.905C414.217 852.993 386.485 840.656 384.551 839.721C383.106 839.108 381.748 838.021 381.676 836.853C381.654 836.503 381.749 836.145 381.96 835.78L392.238 820.134C393.201 818.667 394.304 817.543 396.172 817.426C398.858 817.259 430.094 823.75 430.473 829.822C430.509 830.406 430.429 830.997 429.998 831.61ZM439.61 897.361L427.486 917.226C426.427 919.05 425.639 919.569 424.822 919.62C423.537 919.7 396.352 908.618 391.886 906.552C390.441 905.939 389.076 904.735 389.011 903.684C388.989 903.333 389.084 902.976 389.296 902.611L399.872 886.125C400.836 884.658 401.931 883.418 403.799 883.301C404.617 883.25 439.662 888.8 440.085 895.573C440.121 896.157 440.041 896.748 439.61 897.361Z" fill="#924AFF"/>
<path d="M345.368 890.589L266.403 898.145C265.122 898.266 263.381 897.255 263.238 895.74L261.241 874.54C261.11 873.142 262.514 871.835 263.796 871.714L342.899 864.38C344.181 864.259 345.805 865.281 345.947 866.796L347.934 887.879C348.065 889.277 346.65 890.468 345.368 890.589Z" fill="#924AFF"/>
<path d="M230.25 894.093L217.544 908.503C216.402 909.93 215.592 910.414 214.773 910.43C214.188 910.441 213.713 910.099 213.002 909.645C211.229 908.744 207.197 906.015 202.217 902.719C186.229 916.843 172.091 923.908 170.804 923.934C169.635 923.957 167.751 923.409 166.201 921.918L155.821 911.824C155.225 911.251 154.979 910.67 154.968 910.086C154.954 909.384 155.52 908.436 156.791 907.592C164.3 902.646 172.704 895.577 180.394 887.936L168.533 879.861C167.23 879.067 166.154 877.918 166.133 876.865C166.126 876.514 166.236 876.161 166.58 875.803L175.399 866.034C176.314 864.963 177.124 864.479 178.293 864.456C180.867 864.405 189.246 867.985 195.973 870.895C201.457 864.117 203.168 861.86 203.136 860.222C203.115 859.169 202.28 858.366 200.757 858.279L184.121 857.32C181.226 858.898 164.442 868.239 159.529 868.336C158.476 868.356 157.533 868.024 156.811 866.985L146.208 851.513C145.607 850.705 145.477 850.006 145.467 849.538C145.447 848.485 146.02 847.889 146.947 847.402C159.011 842.016 170.997 832.652 178.591 826.066C179.167 825.587 179.976 825.103 180.795 825.087C182.082 825.061 182.318 825.174 188.936 834.405L225.023 836.621C229.943 836.875 236.344 841.079 236.487 848.331C236.609 854.531 231.741 868.787 220.326 883.405C228.256 887.93 230.88 890.453 230.919 892.441C230.931 893.026 230.706 893.499 230.25 894.093Z" fill="#924AFF"/>
</g>
<mask id="mask0_2051_168" style="mask-type:alpha" maskUnits="userSpaceOnUse" x="145" y="807" width="567" height="117">
<path d="M658.744 887.631L643.453 816.708C643.161 815.215 643.443 813.61 644.936 813.318L666.781 807.976L667.011 807.931C668.503 807.639 670.153 808.151 670.422 809.529L678.232 849.489C678.614 851.441 679.07 851.948 680.219 851.724C681.252 851.522 682.448 850.93 695.232 844.975C695.784 844.748 696.313 844.406 696.772 844.316C697.691 844.137 698.47 844.461 699.405 845.59C711.072 858.926 711.277 859.363 711.523 860.626C711.725 861.66 711.331 862.691 710.34 863.719C697.659 877.523 670.184 890.045 663.409 891.369C660.538 891.93 659.26 890.272 658.744 887.631ZM626.848 887.904L609.371 886.313C607.306 886.121 606.598 885.544 606.418 884.625C606.283 883.936 606.471 883.065 606.728 881.942C609.341 872.133 612.263 854.752 613.66 844.823C613.945 842.621 614.959 841.708 616.337 841.439C616.681 841.371 617.141 841.282 617.508 841.329L637.923 842.704C639.735 842.827 641.201 843.613 641.604 845.68C642.884 852.225 634.265 886.813 628.868 887.867C628.294 887.98 627.697 887.977 626.848 887.904Z" fill="#AA72FF"/>
<path d="M566.726 873.006L566.493 872.983L538.319 868.958C524.13 904.962 499.784 916.001 496.64 915.696C495.243 915.561 493.935 914.493 492.324 912.927L481.455 902.586C480.918 902.064 480.73 901.575 480.786 900.993C480.888 899.945 482.166 898.893 483.409 898.191C495.845 891.169 503.759 878.653 508.992 864.702L480.352 860.631C479.071 860.507 478.241 859.369 478.365 858.088L478.388 857.855L481.243 839.324C481.484 838.054 482.051 837.051 483.332 837.176L515.443 841.818C516.808 835.015 517.801 828.411 518.622 822.378C518.953 820.177 520.159 818.648 522.488 818.874L542.379 821.039C546.921 821.479 547.461 823.177 546.264 835.521C545.936 838.899 545.47 842.497 544.77 846.073L569.578 849.655C570.976 849.791 572.365 851.219 572.241 852.5L569.269 871.019C569.145 872.3 568.007 873.13 566.726 873.006Z" fill="#AA72FF"/>
<path d="M414.938 868.304L399.778 882.732C398.785 883.731 397.99 884.133 397.406 884.169C396.705 884.213 396.092 883.782 395.355 883.242C377.52 869.819 375.046 867.746 374.944 866.111C374.915 865.644 375.009 865.286 375.455 864.907L388.432 853.078C389.432 852.195 390.439 851.428 391.607 851.356C393.943 851.21 415.413 860.889 415.755 866.378C415.792 866.962 415.602 867.677 414.938 868.304ZM429.998 831.61L418.173 850.636C417.107 852.343 416.319 852.861 415.618 852.905C414.217 852.993 386.485 840.656 384.551 839.721C383.106 839.108 381.748 838.021 381.676 836.853C381.654 836.503 381.749 836.145 381.96 835.78L392.238 820.134C393.201 818.667 394.304 817.543 396.172 817.426C398.858 817.259 430.094 823.75 430.473 829.822C430.509 830.406 430.429 830.997 429.998 831.61ZM439.61 897.361L427.486 917.226C426.427 919.05 425.639 919.569 424.822 919.62C423.537 919.7 396.352 908.618 391.886 906.552C390.441 905.939 389.076 904.735 389.011 903.684C388.989 903.333 389.084 902.976 389.296 902.611L399.872 886.125C400.836 884.658 401.931 883.418 403.799 883.301C404.617 883.25 439.662 888.8 440.085 895.573C440.121 896.157 440.041 896.748 439.61 897.361Z" fill="#AA72FF"/>
<path d="M345.368 890.589L266.403 898.145C265.122 898.266 263.381 897.255 263.238 895.74L261.241 874.54C261.11 873.142 262.514 871.835 263.796 871.714L342.899 864.38C344.181 864.259 345.805 865.281 345.947 866.796L347.934 887.879C348.065 889.277 346.65 890.468 345.368 890.589Z" fill="#AA72FF"/>
<path d="M230.25 894.093L217.544 908.503C216.402 909.93 215.592 910.414 214.773 910.43C214.188 910.441 213.713 910.099 213.002 909.645C211.229 908.744 207.197 906.015 202.217 902.719C186.229 916.843 172.091 923.908 170.804 923.934C169.635 923.957 167.751 923.409 166.201 921.918L155.821 911.824C155.225 911.251 154.979 910.67 154.968 910.086C154.954 909.384 155.52 908.436 156.791 907.592C164.3 902.646 172.704 895.577 180.394 887.936L168.533 879.861C167.23 879.067 166.154 877.918 166.133 876.865C166.126 876.514 166.236 876.161 166.58 875.803L175.399 866.034C176.314 864.963 177.124 864.479 178.293 864.456C180.867 864.405 189.246 867.985 195.973 870.895C201.457 864.117 203.168 861.86 203.136 860.222C203.115 859.169 202.28 858.366 200.757 858.279L184.121 857.32C181.226 858.898 164.442 868.239 159.529 868.336C158.476 868.356 157.533 868.024 156.811 866.985L146.208 851.513C145.607 850.705 145.477 850.006 145.467 849.538C145.447 848.485 146.02 847.889 146.947 847.402C159.011 842.016 170.997 832.652 178.591 826.066C179.167 825.587 179.976 825.103 180.795 825.087C182.082 825.061 182.318 825.174 188.936 834.405L225.023 836.621C229.943 836.875 236.344 841.079 236.487 848.331C236.609 854.531 231.741 868.787 220.326 883.405C228.256 887.93 230.88 890.453 230.919 892.441C230.931 893.026 230.706 893.499 230.25 894.093Z" fill="#AA72FF"/>
</mask>
<g mask="url(#mask0_2051_168)">
<path d="M186.891 872.857L131.32 861.369C117.752 858.564 108.789 875.064 118.527 884.919L164.674 931.622C167.431 934.412 171.231 935.917 175.151 935.772L452.5 925.5L719.423 887.302C728.982 885.934 734.319 875.528 729.852 866.967L713.121 834.898C710.606 830.079 705.53 827.151 700.1 827.387L665.577 828.888C663.873 828.962 662.198 829.347 660.632 830.023L622.5 846.5L563.335 872.184C559.92 873.667 556.055 873.728 552.594 872.354L526.573 862.022C524.874 861.347 523.324 860.346 522.009 859.076L514.508 851.825C511.076 848.507 506.19 847.167 501.546 848.269L426.678 866.034C422.752 866.966 418.615 866.158 415.327 863.818L396.256 850.241C392.92 847.867 388.713 847.072 384.741 848.065L335.595 860.351C333.88 860.78 332.1 860.88 330.349 860.647L275.631 853.351C273.892 853.119 272.126 853.216 270.423 853.636L193.082 872.739C191.053 873.24 188.938 873.28 186.891 872.857Z" fill="#D9D9D9" fill-opacity="0.4"/>
<path d="M184.891 887.857L129.32 876.369C115.752 873.564 106.789 890.064 116.527 899.919L162.359 946.303C165.298 949.277 169.412 950.782 173.577 950.406L716.176 901.381C726.101 900.485 731.938 889.798 727.328 880.962L711.121 849.898C708.606 845.079 703.53 842.151 698.1 842.387L663.577 843.888C661.873 843.962 660.198 844.347 658.632 845.023L620.5 861.5L561.335 887.184C557.92 888.667 554.055 888.728 550.594 887.354L524.573 877.022C522.874 876.347 521.324 875.346 520.009 874.076L512.508 866.825C509.076 863.507 504.19 862.167 499.546 863.269L424.678 881.034C420.752 881.966 416.615 881.158 413.327 878.818L394.256 865.241C390.92 862.867 386.713 862.072 382.741 863.065L333.595 875.351C331.88 875.78 330.1 875.88 328.349 875.647L273.631 868.351C271.892 868.119 270.126 868.216 268.423 868.636L191.082 887.739C189.053 888.24 186.938 888.28 184.891 887.857Z" fill="#D9D9D9" fill-opacity="0.4"/>
<path d="M183.891 903.857L128.32 892.369C114.752 889.564 105.789 906.064 115.527 915.919L161.359 962.303C164.298 965.277 168.412 966.782 172.577 966.406L715.176 917.381C725.101 916.485 730.938 905.798 726.328 896.962L710.121 865.898C707.606 861.079 702.53 858.151 697.1 858.387L662.577 859.888C660.873 859.962 659.198 860.347 657.632 861.023L619.5 877.5L560.335 903.184C556.92 904.667 553.055 904.728 549.594 903.354L523.573 893.022C521.874 892.347 520.324 891.346 519.009 890.076L511.508 882.825C508.076 879.507 503.19 878.167 498.546 879.269L423.678 897.034C419.752 897.966 415.615 897.158 412.327 894.818L393.256 881.241C389.92 878.867 385.713 878.072 381.741 879.065L332.595 891.351C330.88 891.78 329.1 891.88 327.349 891.647L272.631 884.351C270.892 884.119 269.126 884.216 267.423 884.636L190.082 903.739C188.053 904.24 185.938 904.28 183.891 903.857Z" fill="#D9D9D9" fill-opacity="0.4"/>
</g>
<path d="M279.465 745.715C271.363 739.651 262.502 734.678 253.109 730.922C251.259 733.023 249.521 735.221 247.903 737.505C237.856 733.697 227.294 731.418 216.57 730.744C216.037 727.996 215.36 725.277 214.542 722.6C204.426 722.161 194.295 723.044 184.405 725.225C160.824 747.848 150.409 772.624 147.338 798.6C156.131 808.602 166.572 817.018 178.208 823.483C181.827 820.312 185.172 816.84 188.209 813.106C184.487 810.718 180.982 808.006 177.735 805.001C178.868 804.501 179.984 803.975 181.064 803.463C190.792 810.901 202.041 816.096 214.008 818.678C225.976 821.26 238.366 821.166 250.296 818.402C251.067 819.369 251.867 820.309 252.694 821.176C248.489 822.576 244.17 823.604 239.786 824.247C241.011 828.898 242.628 833.437 244.62 837.814C257.894 836.739 270.885 833.382 283.024 827.89C292.235 798.984 290.059 771.74 279.465 745.715ZM195.827 792.68C189.078 791.224 184.826 783.886 186.454 776.34C188.083 768.793 194.8 763.766 201.721 765.259C208.642 766.753 212.839 774.135 211.093 781.656C209.346 789.177 202.705 794.164 195.827 792.68ZM241.293 802.491C234.533 801.032 230.303 793.699 231.931 786.153C233.56 778.606 240.277 773.579 247.209 775.075C254.141 776.57 258.295 783.943 256.548 791.464C254.801 798.986 248.171 803.975 241.293 802.491Z" fill="#37395E"/>
<g clip-path="url(#clip0_2051_168)">
<path d="M1246.75 718.155L1206.43 711.719C1203.37 711.231 1200.25 711.978 1197.74 713.793C1195.24 715.609 1193.56 718.346 1193.07 721.401L1180.2 802.047C1179.71 805.103 1180.46 808.227 1182.27 810.732C1184.09 813.238 1186.82 814.919 1189.88 815.407L1270.53 828.278C1273.58 828.766 1276.71 828.019 1279.21 826.204C1281.72 824.388 1283.4 821.651 1283.89 818.596L1290.32 778.273M1291.33 716.409C1293.99 714.483 1297.3 713.692 1300.55 714.209C1303.79 714.726 1306.69 716.51 1308.62 719.167C1310.54 721.825 1311.33 725.138 1310.82 728.379C1310.3 731.62 1308.51 734.523 1305.86 736.449L1242.4 782.439L1218.44 784.522L1227.88 762.399L1291.33 716.409Z" stroke="#37395E" stroke-width="12" stroke-linecap="round" stroke-linejoin="round"/>
</g>
<g clip-path="url(#clip1_2051_168)">
<path d="M776.508 811.03C749.666 825.41 745.022 802.543 733.008 802.007M820.007 820.054L815.514 797.93C815.175 795.161 814.25 792.495 812.801 790.111C811.352 787.726 809.412 785.678 807.11 784.101C824.654 778.455 842.138 767.821 835.799 736.608C834.177 728.627 829.548 721.575 822.87 716.912C824.058 709.4 822.307 701.719 817.979 695.465C817.979 695.465 810.827 694.834 797.345 708.465C783.522 707.575 769.71 710.379 757.329 716.591C739.598 709.299 733.259 712.67 733.259 712.67C731.714 720.117 733.097 727.873 737.121 734.326C732.759 741.276 731.259 749.645 732.934 757.677C739.227 788.661 759.473 791.633 777.876 790.217C776.39 792.542 775.41 795.154 775 797.884C774.591 800.613 774.76 803.398 775.498 806.057L779.991 828.18" stroke="#37395E" stroke-width="12" stroke-linecap="round" stroke-linejoin="round"/>
</g>
<g clip-path="url(#clip2_2051_168)">
<path d="M2105.86 586.409L2115.17 620.15C2115.99 623.133 2115.6 626.32 2114.07 629.011C2112.54 631.702 2110.01 633.676 2107.03 634.498L2045.17 651.559C2042.19 652.382 2039 651.986 2036.31 650.458C2033.62 648.931 2031.64 646.397 2030.82 643.414L2013.76 581.557C2012.94 578.574 2013.33 575.387 2014.86 572.696C2016.39 570.005 2018.92 568.031 2021.9 567.209L2055.64 557.903M2073.48 534.829L2107.22 525.523M2107.22 525.523L2116.53 559.263M2107.22 525.523L2062.43 604.441" stroke="#37395E" stroke-width="12" stroke-linecap="round" stroke-linejoin="round"/>
</g>
<g clip-path="url(#clip3_2051_168)">
<path d="M1156.15 396.805C1157.05 399.765 1156.73 402.962 1155.28 405.692C1153.82 408.422 1151.34 410.462 1148.38 411.362L1081.41 431.74L1065.88 460.855L1038.71 371.564C1037.81 368.604 1038.12 365.407 1039.58 362.677C1041.04 359.947 1043.52 357.907 1046.48 357.006L1124.61 333.233C1127.57 332.332 1130.76 332.644 1133.49 334.1C1136.22 335.556 1138.26 338.038 1139.17 340.998L1156.15 396.805Z" stroke="#37395E" stroke-width="12" stroke-linecap="round" stroke-linejoin="round"/>
</g>
<path d="M81.3228 605.27L122.067 577.165L93.9624 536.42M125.116 625.171L171.015 633.597" stroke="#37395E" stroke-width="12" stroke-linecap="round" stroke-linejoin="round"/>
<mask id="mask1_2051_168" style="mask-type:luminance" maskUnits="userSpaceOnUse" x="1893" y="772" width="140" height="141">
<path d="M2026 780H1900V906H2026V780Z" fill="white" stroke="white" stroke-width="14"/>
</mask>
<g mask="url(#mask1_2051_168)">
<path d="M2015.5 837.168L1904.67 784.668L1957.17 895.501L1968.83 848.834L2015.5 837.168Z" stroke="#37395E" stroke-width="14" stroke-linecap="round" stroke-linejoin="round"/>
</g>
<path d="M1348.7 702.019C1349.03 693.272 1356.08 686.251 1364.83 685.949C1462.68 682.575 1523.72 684.985 1621.51 695.91C1630.21 696.882 1636.69 704.424 1636.35 713.171V713.171C1635.98 722.875 1627.43 730.22 1617.78 729.213C1525.06 719.549 1464.54 716.932 1365.99 719.464C1356.28 719.714 1348.32 711.726 1348.7 702.019V702.019Z" fill="#53FF77"/>
<path d="M1405.57 756.261C1406.34 747.577 1413.74 740.979 1422.46 741.203C1546.66 744.389 1622.56 751.222 1746.45 770.071C1755.07 771.381 1761.19 779.179 1760.42 787.859V787.859C1759.57 797.377 1750.82 804.188 1741.37 802.753C1622.33 784.664 1546.77 777.809 1421.68 774.307C1412.13 774.04 1404.72 765.783 1405.57 756.261V756.261Z" fill="#B049FF"/>
<path d="M1360.6 812.603C1361.35 804.659 1368.04 798.583 1376.02 798.59C1537.44 798.722 1633.11 808.129 1791.84 838.325C1799.68 839.818 1805.11 847.05 1804.35 854.999V854.999C1803.5 863.995 1795.14 870.347 1786.23 868.811C1633.36 842.453 1538.3 832.828 1375.78 829.611C1366.73 829.432 1359.74 821.607 1360.6 812.603V812.603Z" fill="#FF84FD"/>
<path d="M1649.47 712.503C1651.09 703.692 1659.13 697.526 1668.06 698.345C1720 703.115 1754.5 709.385 1805.63 723.652C1814.28 726.067 1819.62 734.718 1818 743.554V743.554C1816.14 753.655 1806.02 759.975 1796.09 757.34C1748.56 744.722 1714.88 738.258 1665.07 733.16C1654.85 732.113 1647.61 722.611 1649.47 712.503V712.503Z" fill="#7972FF"/>
<g filter="url(#filter1_d_2051_168)">
<path d="M952.73 351.388L978.533 366.971L955.295 386.172L945.385 442.858L927.269 388.238L897.962 372.911L924.704 353.454L935.384 307.203L952.73 351.388Z" fill="#924AFF"/>
<path d="M2025.82 359.032L2038.18 364.056L2029.35 374.063L2028.95 399.537L2017.24 376.91L2003.36 372.241L2013.7 361.879L2015.17 340.915L2025.82 359.032Z" fill="#924AFF"/>
<path d="M1942.99 371.84L1969.4 386.373L1946.95 406.492L1939.33 463.532L1919.03 409.684L1889.13 395.549L1915.07 375.032L1923.88 328.389L1942.99 371.84Z" fill="#924AFF"/>
<path d="M2010.74 435.364L2030.86 444.382L2020.33 463.753L2026.92 512.134L2002.82 469.669L1980.51 461.389L1993.23 441.279L1989.52 401.415L2010.74 435.364Z" fill="#924AFF"/>
<path d="M1989.16 790.343L1996.97 803.194L1983.2 809.238L1967.5 837.525L1970.87 805.348L1961.52 792.01L1976.83 786.453L1990.74 763.835L1989.16 790.343Z" fill="#924AFF"/>
<path d="M2072.78 759.423L2091.54 783.017L2063.07 792.922L2034.04 842.61L2036.08 785.099L2013.94 760.527L2045.79 751.6L2071.91 711.963L2072.78 759.423Z" fill="#924AFF"/>
<path d="M161.631 432.729L183.96 452.979L157.465 467.357L136.85 521.084L129.564 464.001L103.748 443.33L133.73 429.373L153.096 386.034L161.631 432.729Z" fill="#924AFF"/>
<path d="M243.803 689.793L266.26 698.787L253.151 719.119L257.946 769.281L232.826 725.598L207.827 717.414L223.477 696.272L221.487 654.908L243.803 689.793Z" fill="#924AFF"/>
<path d="M126.927 824.208L132.982 831.622L124.55 836.152L116.608 854.439L116.272 834.505L109.183 826.885L118.649 822.561L125.879 807.857L126.927 824.208Z" fill="#924AFF"/>
<path d="M728.763 896.535L739.739 901.217L733.051 911.1L734.864 935.89L722.956 914.071L710.718 909.76L718.668 899.506L718.141 879.086L728.763 896.535Z" fill="#924AFF"/>
<path d="M979.094 284.186L991.849 291.363L980.858 301.028L976.896 328.685L967.288 302.449L952.837 295.449L965.524 285.607L970.016 263.002L979.094 284.186Z" fill="#924AFF"/>
</g>
<g filter="url(#filter2_d_2051_168)">
<path d="M1973.17 745.043L1972.58 744.926L1899.17 726.459L1897.99 726.227L1837.36 711.199C1833.59 710.149 1831.28 706.331 1832.1 702.21L1889.48 475.023C1890.47 471.549 1894 469.187 1897.82 469.942L1898.41 470.058L1958.75 485.028C1962.52 486.078 1964.83 489.896 1964.01 494.017L1923.41 654.796L1991.29 671.865C1995.35 672.973 1997.6 677.086 1996.84 680.912L1981.57 739.668C1980.58 743.141 1977 745.798 1973.17 745.043Z" fill="#924AFF"/>
<path d="M1814.98 641.496L1814.39 641.596L1758.57 647.98C1754.67 648.334 1750.62 645.975 1749.98 642.13L1749.93 641.834L1746.81 616.194L1660.57 626.195C1649.53 627.452 1643.35 621.498 1641.75 612.032C1641.45 610.257 1641.45 608.432 1641.39 606.311L1640.59 415.988C1640.58 412.338 1643.09 409.177 1646.64 408.577L1647.53 408.427L1706.36 407.314C1709.67 407.06 1713.12 409.518 1713.67 412.772C1713.77 413.364 1713.53 413.71 1713.63 414.301L1712.23 544.755C1712.19 546.284 1712.39 547.468 1712.54 548.355C1713.79 555.75 1719.21 555.443 1723.7 554.989L1739.82 553.179L1732.28 488.734C1731.93 484.839 1735.28 481.231 1739.12 480.581L1739.71 480.482L1795.23 474.147C1799.13 473.794 1802.59 476.252 1803.19 479.802L1803.29 480.394L1810.53 544.888L1830.25 542.774C1833.8 542.175 1837.6 544.879 1838.2 548.429L1838.3 549.02L1844.38 597.587C1844.68 601.187 1842.27 604.941 1838.43 605.59L1837.83 605.69L1817.86 608.15L1820.63 633.544C1820.94 637.143 1818.53 640.897 1814.98 641.496Z" fill="#924AFF"/>
<path d="M1549.51 641.093L1494.03 628.94C1490.77 628.422 1488.58 625.036 1487.22 622.087C1482.55 611.321 1440.8 491.691 1430.6 473.669C1429.7 471.703 1428.61 470.922 1427.72 470.781C1426.24 470.545 1425.46 471.636 1425.08 474.007L1424.89 475.192L1419.96 603.81L1419.91 604.106C1419.39 607.365 1415.49 612.82 1407.94 612.533L1351.4 610.844L1350.52 610.703C1346.07 609.997 1343.27 604.692 1343.58 600.793L1366.94 371.518L1367.03 370.925C1367.55 367.666 1370.75 360.885 1376.72 361.53L1434.92 368.039L1435.52 368.133C1439.96 368.839 1445.51 372.15 1446.76 373.867C1461.71 394.468 1488.55 460.698 1508.92 512.231C1509.53 514.15 1510.32 514.883 1511.21 515.025C1512.4 515.213 1513.27 513.529 1513.65 511.159L1536.45 390.542C1537.02 386.987 1540.79 384.245 1544.35 384.81L1544.94 384.904L1601.26 397.494C1605.96 398.544 1607.51 402.132 1606.95 405.688C1605.72 413.391 1570.9 581.004 1558 635.454C1557.39 639.306 1553.66 641.751 1549.51 641.093Z" fill="#924AFF"/>
<path d="M1315.88 673.4L1254.38 676.7H1253.78C1250.18 676.7 1246.88 673.4 1246.88 669.8L1237.88 500.6L1215.08 501.8H1214.78C1211.48 501.8 1208.48 498.5 1208.48 494.3L1205.48 437.3V436.7C1205.48 433.1 1208.48 430.1 1212.08 429.8L1302.98 425H1303.58C1307.18 425 1310.18 428.3 1310.48 431.9L1322.78 665.9V666.5C1322.78 670.1 1319.78 673.4 1315.88 673.4Z" fill="#924AFF"/>
<path d="M1154.32 743.659L1154.02 743.625L1094.05 732.118C1087.53 731.057 1085.31 724.155 1085.7 720.877L1085.73 720.579L1114.71 593.476L1114.88 591.986C1115.13 589.9 1114.97 588.674 1114.07 588.57C1113.48 588.501 1112.48 589.291 1111.11 590.642C1104.88 597.468 1077.72 641.424 1059.93 667.14C1058.46 669.386 1054.7 673.176 1048.11 672.712L1017.28 670.333C1011.91 669.709 1009.45 664.893 1008.08 661.109C996.371 631.961 979.817 584.732 975.056 576.325C974.038 574.697 973.248 573.699 972.354 573.595C971.758 573.525 971.321 574.683 971.113 576.471L970.87 578.556L969.548 706.762L969.513 707.06C969.132 710.338 964.232 716.111 957.607 715.944L899.838 714.057L899.54 714.022C894.773 713.467 892.015 708.616 892.5 704.444L907.708 472.448C908.089 469.17 910.397 464.908 916.128 464.97L975.214 468.521L975.81 468.591C979.982 469.076 985.664 472.153 986.683 473.782C999.274 492.764 1022.15 540.125 1041.7 584.984C1042.19 585.947 1042.46 586.28 1043.05 586.349C1043.65 586.418 1044.02 585.857 1044.72 585.032C1074.04 545.858 1107.15 505.312 1123.76 489.727C1125.12 488.376 1130.17 486.546 1134.34 487.032L1134.94 487.101L1193.89 496.979C1199.52 497.936 1200.82 502.315 1200.44 505.593L1200.37 506.189L1163.37 735.953C1162.59 740.091 1158.79 744.179 1154.32 743.659Z" fill="#924AFF"/>
<path d="M867.707 651.926L829.327 673.749C827.024 675.125 824.675 675.902 822.282 676.081C819.29 676.305 816.508 675.309 814.168 672.175C800.238 654.865 779.176 626.657 763.049 604.097C750.484 605.037 738.107 604.458 726.492 602.017L728.182 672.889C728.129 676.202 725.937 679.073 722.646 679.319L722.047 679.364L658.977 680.771C655.985 680.995 653.091 678.503 652.845 675.213L652.801 674.614L647.073 437.08C647.148 434.066 649.639 431.172 652.631 430.948L653.229 430.904L708.776 429.458C720.175 424.995 732.008 422.306 743.675 421.433C798.721 417.317 851.567 452.174 855.661 506.921C856.757 521.58 855.158 548.474 837.787 569.628C857.188 599.765 873.483 640.664 873.685 643.357C873.908 646.348 872.636 649.452 867.707 651.926ZM723.953 487.588L725.301 545.85C731.785 548.072 740.318 549.54 748.395 548.936C772.628 547.124 779.984 528.825 778.955 515.063C777.501 495.618 759.719 483.109 737.58 484.764C733.392 485.077 728.65 486.033 723.953 487.588Z" fill="#924AFF"/>
<path d="M445.004 739.082L457.331 706.162C458.933 701.789 462.056 700.566 464.745 700.81C466.538 700.973 467.978 701.706 469.444 702.14C502.528 715.988 530.639 711.612 532.185 694.582C533.026 685.32 523.735 674.837 503.718 673.02L502.821 672.939C499.236 672.613 493.695 670.604 493.613 664.873L493.743 620.302L493.879 618.808C494.367 613.43 497.572 611.312 502.651 611.773L504.145 611.908C524.76 613.78 532.88 600.66 533.829 590.203C535.267 574.368 521.93 565.326 504.601 563.752C490.559 562.477 475.485 565.929 468.695 571.036C466.115 572.91 464.241 573.644 463.046 573.535C460.357 573.291 459.107 570.466 457.26 567.588L431.915 531.548C430.557 529.919 430.122 528.072 430.257 526.578C430.447 524.487 432.131 522.531 434.956 521.281C466.352 507.263 497.477 502.859 524.666 505.327C581.731 510.508 622.829 545.568 619.195 585.603C617.567 603.529 607.14 622.163 585.359 639.765C610.484 655 620.373 675.478 618.556 695.495C615.084 733.738 568.725 769.894 502.099 763.846C485.368 762.327 467.36 758.282 448.754 750.869C444.381 749.267 443.022 747.638 443.266 744.949C443.402 743.455 444.162 741.717 445.004 739.082Z" fill="#924AFF"/>
<path d="M399.62 716.473L338.911 735.713L338.33 735.865C334.556 736.849 330.821 734.412 329.912 730.929L277.983 567.442L231.056 582.468C226.992 583.528 222.751 581.533 221.767 577.759L205.151 524.736L205 524.156C204.091 520.672 206.238 517.012 209.936 515.738L376.83 462.61C380.604 461.626 385.135 463.545 386.195 467.609L402.659 520.051C403.643 523.825 401.649 528.065 397.66 529.415L352.399 543.697L404.405 707.475L404.48 707.765C405.464 711.539 403.028 715.274 399.62 716.473Z" fill="#924AFF"/>
</g>
<mask id="mask2_2051_168" style="mask-type:alpha" maskUnits="userSpaceOnUse" x="203" y="360" width="1793" height="405">
<path d="M1971.86 744.556L1971.27 744.44L1897.86 725.973L1896.68 725.74L1836.04 710.712C1832.28 709.663 1829.97 705.844 1830.78 701.724L1888.17 474.536C1889.16 471.062 1892.68 468.7 1896.51 469.455L1897.1 469.571L1957.44 484.541C1961.21 485.591 1963.51 489.409 1962.7 493.53L1922.1 654.31L1989.97 671.379C1994.04 672.486 1996.28 676.599 1995.53 680.425L1980.26 739.181C1979.27 742.655 1975.69 745.311 1971.86 744.556Z" fill="#E4CCFA"/>
<path d="M1813.67 641.009L1813.07 641.109L1757.26 647.494C1753.36 647.847 1749.31 645.489 1748.66 641.643L1748.61 641.347L1745.5 615.708L1659.26 625.709C1648.22 626.965 1642.04 621.011 1640.44 611.545C1640.14 609.77 1640.14 607.945 1640.08 605.825L1639.28 415.501C1639.27 411.852 1641.78 408.69 1645.33 408.09L1646.21 407.94L1705.05 406.827C1708.35 406.573 1711.81 409.032 1712.36 412.286C1712.46 412.877 1712.22 413.223 1712.32 413.815L1710.92 544.269C1710.87 545.798 1711.07 546.981 1711.22 547.868C1712.47 555.264 1717.9 554.956 1722.39 554.502L1738.51 552.692L1730.97 488.247C1730.62 484.352 1733.96 480.744 1737.81 480.095L1738.4 479.995L1793.92 473.661C1797.82 473.307 1801.27 475.766 1801.87 479.315L1801.97 479.907L1809.22 544.402L1828.94 542.288C1832.49 541.688 1836.29 544.392 1836.89 547.942L1836.99 548.534L1843.06 597.101C1843.37 600.7 1840.96 604.454 1837.11 605.103L1836.52 605.203L1816.55 607.663L1819.32 633.057C1819.62 636.656 1817.22 640.41 1813.67 641.009Z" fill="#E4CCFA"/>
<path d="M1548.2 640.606L1492.72 628.453C1489.46 627.935 1487.26 624.549 1485.91 621.6C1481.24 610.834 1439.49 491.205 1429.29 473.182C1428.39 471.216 1427.3 470.435 1426.41 470.294C1424.93 470.059 1424.15 471.15 1423.77 473.52L1423.58 474.705L1418.65 603.323L1418.6 603.619C1418.08 606.878 1414.18 612.334 1406.63 612.046L1350.09 610.357L1349.2 610.216C1344.76 609.51 1341.96 604.205 1342.27 600.306L1365.62 371.031L1365.72 370.439C1366.24 367.179 1369.44 360.398 1375.41 361.043L1433.61 367.552L1434.2 367.646C1438.65 368.352 1444.2 371.664 1445.44 373.38C1460.4 393.981 1487.24 460.211 1507.61 511.744C1508.22 513.663 1509.01 514.397 1509.9 514.538C1511.09 514.726 1511.96 513.042 1512.34 510.672L1535.14 390.056C1535.7 386.5 1539.48 383.759 1543.04 384.323L1543.63 384.417L1599.95 397.008C1604.64 398.057 1606.2 401.645 1605.64 405.201C1604.41 412.904 1569.59 580.517 1556.69 634.968C1556.08 638.819 1552.35 641.265 1548.2 640.606Z" fill="#E4CCFA"/>
<path d="M1314.57 672.913L1253.07 676.213H1252.47C1248.87 676.213 1245.57 672.913 1245.57 669.313L1236.57 500.113L1213.77 501.313H1213.47C1210.17 501.313 1207.17 498.013 1207.17 493.813L1204.17 436.813V436.213C1204.17 432.613 1207.17 429.613 1210.77 429.313L1301.67 424.513H1302.27C1305.87 424.513 1308.87 427.813 1309.17 431.413L1321.47 665.413V666.013C1321.47 669.613 1318.47 672.913 1314.57 672.913Z" fill="#E4CCFA"/>
<path d="M1153.01 743.173L1152.71 743.138L1092.74 731.631C1086.22 730.571 1084 723.668 1084.38 720.39L1084.42 720.092L1113.4 592.99L1113.57 591.5C1113.81 589.414 1113.65 588.187 1112.76 588.083C1112.16 588.014 1111.17 588.804 1109.8 590.155C1103.57 596.981 1076.41 640.937 1058.62 666.654C1057.15 668.899 1053.39 672.689 1046.8 672.225L1015.96 669.846C1010.6 669.223 1008.14 664.406 1006.77 660.622C995.059 631.474 978.505 584.245 973.744 575.838C972.726 574.21 971.936 573.212 971.042 573.108C970.446 573.039 970.009 574.196 969.801 575.984L969.558 578.07L968.236 706.276L968.201 706.574C967.82 709.852 962.92 715.624 956.295 715.457L898.526 713.57L898.228 713.535C893.461 712.981 890.703 708.129 891.188 703.958L906.396 471.961C906.777 468.683 909.085 464.421 914.816 464.484L973.902 468.035L974.498 468.104C978.669 468.589 984.352 471.666 985.371 473.295C997.962 492.277 1020.84 539.638 1040.39 584.497C1040.88 585.46 1041.15 585.793 1041.74 585.862C1042.34 585.932 1042.7 585.37 1043.4 584.546C1072.73 545.371 1105.83 504.825 1122.45 489.24C1123.81 487.889 1128.86 486.06 1133.03 486.545L1133.62 486.614L1192.58 496.492C1198.21 497.449 1199.51 501.829 1199.13 505.107L1199.06 505.703L1162.06 735.467C1161.28 739.604 1157.48 743.693 1153.01 743.173Z" fill="#E4CCFA"/>
<path d="M866.395 651.44L828.015 673.262C825.712 674.638 823.363 675.415 820.97 675.594C817.978 675.818 815.196 674.822 812.856 671.688C798.926 654.379 777.864 626.171 761.737 603.61C749.172 604.55 736.795 603.971 725.18 601.53L726.87 672.402C726.817 675.715 724.625 678.586 721.334 678.832L720.735 678.877L657.665 680.284C654.673 680.508 651.779 678.017 651.533 674.726L651.489 674.127L645.761 436.593C645.836 433.579 648.327 430.685 651.319 430.462L651.917 430.417L707.464 428.971C718.863 424.509 730.696 421.819 742.363 420.947C797.409 416.83 850.255 451.687 854.349 506.434C855.445 521.093 853.846 547.987 836.475 569.142C855.876 599.279 872.171 640.178 872.373 642.87C872.596 645.862 871.324 648.965 866.395 651.44ZM722.641 487.101L723.989 545.363C730.473 547.586 739.006 549.053 747.083 548.449C771.316 546.638 778.672 528.338 777.643 514.577C776.189 495.131 758.407 482.622 736.268 484.277C732.08 484.59 727.338 485.547 722.641 487.101Z" fill="#E4CCFA"/>
<path d="M443.692 738.595L456.019 705.675C457.621 701.302 460.744 700.079 463.433 700.323C465.226 700.486 466.666 701.219 468.132 701.654C501.216 715.502 529.327 711.125 530.873 694.095C531.714 684.834 522.423 674.351 502.406 672.533L501.509 672.452C497.924 672.126 492.383 670.117 492.301 664.386L492.431 619.815L492.567 618.322C493.055 612.944 496.26 610.825 501.339 611.286L502.833 611.422C523.448 613.293 531.568 600.174 532.517 589.717C533.955 573.882 520.618 564.839 503.289 563.266C489.247 561.991 474.173 565.442 467.383 570.549C464.803 572.423 462.929 573.157 461.734 573.048C459.045 572.804 457.795 569.98 455.948 567.101L430.603 531.062C429.245 529.432 428.81 527.585 428.945 526.091C429.135 524 430.819 522.044 433.644 520.795C465.04 506.776 496.165 502.372 523.354 504.84C580.419 510.021 621.517 545.081 617.883 585.116C616.255 603.042 605.828 621.676 584.047 639.279C609.172 654.513 619.061 674.991 617.244 695.009C613.772 733.251 567.413 769.408 500.787 763.359C484.056 761.84 466.048 757.795 447.442 750.383C443.069 748.781 441.71 747.151 441.954 744.462C442.09 742.968 442.85 741.23 443.692 738.595Z" fill="#E4CCFA"/>
<path d="M398.308 715.986L337.599 735.226L337.018 735.378C333.244 736.362 329.509 733.926 328.6 730.442L276.671 566.955L229.744 581.981C225.68 583.041 221.439 581.046 220.455 577.273L203.839 524.249L203.688 523.669C202.779 520.185 204.925 516.525 208.624 515.251L375.518 462.123C379.292 461.139 383.823 463.058 384.883 467.122L401.347 519.564C402.331 523.338 400.337 527.579 396.348 528.929L351.087 543.211L403.093 706.988L403.168 707.278C404.152 711.052 401.716 714.788 398.308 715.986Z" fill="#E4CCFA"/>
</mask>
<g mask="url(#mask2_2051_168)">
<path d="M374.751 591.4L339.69 571.587C287.095 541.865 220.468 557.925 187.191 608.346C139.12 681.18 186.546 778.912 273.507 786.22L1086 854.5L1882.3 820.932C2006.27 815.706 2080.02 679.721 2018.88 571.742C1983.27 508.851 1910.67 475.534 1839.94 490.377L1824.48 493.622C1800.61 498.632 1775.92 498.319 1752.18 492.703L1636.98 465.455L1509.47 428.411C1472.92 417.794 1433.84 420.057 1398.76 434.821L1343.25 458.186C1331.77 463.016 1319.79 466.54 1307.52 468.691L1148.81 496.525C1131.04 499.641 1113.9 505.633 1098.06 514.265L1051.15 539.826C998.798 568.351 935.171 566.613 884.456 535.272L849.42 513.62C800.909 483.642 740.406 480.662 689.185 505.729L612.45 543.282L532.491 590.152C483.888 618.641 423.798 619.117 374.751 591.4Z" fill="white" fill-opacity="0.2"/>
<path d="M374.751 635.4L339.69 615.587C287.095 585.865 220.468 601.925 187.191 652.346C139.12 725.18 186.546 822.912 273.507 830.22L1086 898.5L1882.3 864.932C2006.27 859.706 2080.02 723.721 2018.88 615.742C1983.27 552.851 1910.67 519.534 1839.94 534.377L1824.48 537.622C1800.61 542.632 1775.92 542.319 1752.18 536.703L1636.98 509.455L1509.47 472.411C1472.92 461.794 1433.84 464.057 1398.76 478.821L1343.25 502.186C1331.77 507.016 1319.79 510.54 1307.52 512.691L1148.81 540.525C1131.04 543.641 1113.9 549.633 1098.06 558.265L1051.15 583.826C998.798 612.351 935.171 610.613 884.456 579.272L849.42 557.62C800.909 527.642 740.406 524.662 689.185 549.729L612.45 587.282L532.491 634.152C483.888 662.641 423.798 663.117 374.751 635.4Z" fill="white" fill-opacity="0.2"/>
<path d="M374.751 674.4L339.69 654.587C287.095 624.865 220.468 640.925 187.191 691.346C139.12 764.18 186.546 861.912 273.507 869.22L1086 937.5L1882.3 903.932C2006.27 898.706 2080.02 762.721 2018.88 654.742C1983.27 591.851 1910.67 558.534 1839.94 573.377L1824.48 576.622C1800.61 581.632 1775.92 581.319 1752.18 575.703L1636.98 548.455L1509.47 511.411C1472.92 500.794 1433.84 503.057 1398.76 517.821L1343.25 541.186C1331.77 546.016 1319.79 549.54 1307.52 551.691L1148.81 579.525C1131.04 582.641 1113.9 588.633 1098.06 597.265L1051.15 622.826C998.798 651.351 935.171 649.613 884.456 618.272L849.42 596.62C800.909 566.642 740.406 563.662 689.185 588.729L612.45 626.282L532.491 673.152C483.888 701.641 423.798 702.117 374.751 674.4Z" fill="white" fill-opacity="0.2"/>
<path d="M374.751 710.4L339.69 690.587C287.095 660.865 220.468 676.925 187.191 727.346C139.12 800.18 186.546 897.912 273.507 905.22L1086 973.5L1882.3 939.932C2006.27 934.706 2080.02 798.721 2018.88 690.742C1983.27 627.851 1910.67 594.534 1839.94 609.377L1824.48 612.622C1800.61 617.632 1775.92 617.319 1752.18 611.703L1636.98 584.455L1509.47 547.411C1472.92 536.794 1433.84 539.057 1398.76 553.821L1343.25 577.186C1331.77 582.016 1319.79 585.54 1307.52 587.691L1148.81 615.525C1131.04 618.641 1113.9 624.633 1098.06 633.265L1051.15 658.826C998.798 687.351 935.171 685.613 884.456 654.272L849.42 632.62C800.909 602.642 740.406 599.662 689.185 624.729L612.45 662.282L532.491 709.152C483.888 737.641 423.798 738.117 374.751 710.4Z" fill="white" fill-opacity="0.2"/>
</g>
<defs>
<filter id="filter0_d_2051_168" x="114.667" y="777.052" width="627.708" height="177.682" filterUnits="userSpaceOnUse" color-interpolation-filters="sRGB">
<feFlood flood-opacity="0" result="BackgroundImageFix"/>
<feColorMatrix in="SourceAlpha" type="matrix" values="0 0 0 0 0 0 0 0 0 0 0 0 0 0 0 0 0 0 127 0" result="hardAlpha"/>
<feOffset/>
<feGaussianBlur stdDeviation="15.4"/>
<feComposite in2="hardAlpha" operator="out"/>
<feColorMatrix type="matrix" values="0 0 0 0 0.596078 0 0 0 0 0.266667 0 0 0 0 1 0 0 0 1 0"/>
<feBlend mode="normal" in2="BackgroundImageFix" result="effect1_dropShadow_2051_168"/>
<feBlend mode="normal" in="SourceGraphic" in2="effect1_dropShadow_2051_168" result="shape"/>
</filter>
<filter id="filter1_d_2051_168" x="78.6485" y="237.902" width="2037.99" height="723.088" filterUnits="userSpaceOnUse" color-interpolation-filters="sRGB">
<feFlood flood-opacity="0" result="BackgroundImageFix"/>
<feColorMatrix in="SourceAlpha" type="matrix" values="0 0 0 0 0 0 0 0 0 0 0 0 0 0 0 0 0 0 127 0" result="hardAlpha"/>
<feOffset/>
<feGaussianBlur stdDeviation="12.55"/>
<feComposite in2="hardAlpha" operator="out"/>
<feColorMatrix type="matrix" values="0 0 0 0 0.596078 0 0 0 0 0.266667 0 0 0 0 1 0 0 0 1 0"/>
<feBlend mode="normal" in2="BackgroundImageFix" result="effect1_dropShadow_2051_168"/>
<feBlend mode="normal" in="SourceGraphic" in2="effect1_dropShadow_2051_168" result="shape"/>
</filter>
<filter id="filter2_d_2051_168" x="102.192" y="258.887" width="1997.39" height="608.225" filterUnits="userSpaceOnUse" color-interpolation-filters="sRGB">
<feFlood flood-opacity="0" result="BackgroundImageFix"/>
<feColorMatrix in="SourceAlpha" type="matrix" values="0 0 0 0 0 0 0 0 0 0 0 0 0 0 0 0 0 0 127 0" result="hardAlpha"/>
<feOffset/>
<feGaussianBlur stdDeviation="51.3"/>
<feComposite in2="hardAlpha" operator="out"/>
<feColorMatrix type="matrix" values="0 0 0 0 0.596425 0 0 0 0 0.266227 0 0 0 0 1 0 0 0 1 0"/>
<feBlend mode="normal" in2="BackgroundImageFix" result="effect1_dropShadow_2051_168"/>
<feBlend mode="normal" in="SourceGraphic" in2="effect1_dropShadow_2051_168" result="shape"/>
</filter>
<clipPath id="clip0_2051_168">
<rect width="140" height="140" fill="white" transform="translate(1187.06 685) rotate(9.06787)"/>
</clipPath>
<clipPath id="clip1_2051_168">
<rect width="140" height="140" fill="white" transform="translate(703 712.863) rotate(-11.4797)"/>
</clipPath>
<clipPath id="clip2_2051_168">
<rect width="140" height="140" fill="white" transform="translate(1984.48 541.223) rotate(-15.4193)"/>
</clipPath>
<clipPath id="clip3_2051_168">
<rect width="140" height="140" fill="white" transform="translate(1013.48 348.755) rotate(-16.9241)"/>
</clipPath>
</defs>
</svg>
